<svg xmlns="http://www.w3.org/2000/svg" width="80" height="80" fill="none"><g clip-path="url(#a)"><g clip-path="url(#b)"><mask id="c" width="78" height="80" x="1" y="0" maskUnits="userSpaceOnUse" style="mask-type:luminance"><path fill="#fff" fill-rule="evenodd" d="M71.797 37.268c3.038 0 5.75-1.771 6.778-4.43 1.028-2.658.15-5.63-2.192-7.428.622-2.127.31-4.398-.868-6.312-3.032-4.6-11.283-5.358-22.794-2.16C49.64 6.146 44.635 0 38.832 0c-5.803 0-10.798 6.13-13.88 16.898a58.483 58.483 0 0 0-6.25-1.325c-.789-3.338-4.155-5.587-7.81-5.22-3.655.368-6.425 3.236-6.428 6.653 0 .103 0 .205.007.306a7.353 7.353 0 0 0-1.897 1.958c-3.113 4.772.22 12.203 9.14 20.542A44.305 44.305 0 0 0 2.96 50.37C.05 55.684.914 59.032 2.147 60.903c1.8 2.731 5.437 4.11 10.504 4.11a46.966 46.966 0 0 0 12.29-1.949c.435 1.524.912 2.961 1.43 4.312-2.583 2.197-3.093 5.803-1.207 8.546 1.886 2.742 5.621 3.825 8.85 2.566A8.687 8.687 0 0 0 38.832 80c5.854 0 10.883-6.225 13.956-17.168a48.184 48.184 0 0 0 12.776 2.062c5.127 0 8.798-1.397 10.604-4.165 2.219-3.402.744-7.609-.872-10.53a44.328 44.328 0 0 0-8.811-10.513 60.968 60.968 0 0 0 2.81-2.833c.801.275 1.648.416 2.502.415ZM11.67 14.096c1.726 0 3.125 1.3 3.125 2.905 0 1.604-1.399 2.905-3.125 2.905-1.725 0-3.124-1.3-3.124-2.905.005-1.603 1.401-2.9 3.124-2.905ZM5.622 58.918c-2.03-3.078 1.586-9.6 9.04-16.498a94.591 94.591 0 0 0 7.68 5.81 82.29 82.29 0 0 0 1.665 11.138c-9.334 2.624-16.458 2.48-18.393-.444l.008-.006Zm16.43-15.65a85.367 85.367 0 0 1-4.413-3.45 88.927 88.927 0 0 1 4.423-3.438 100.431 100.431 0 0 0-.067 3.612c0 1.102.021 2.197.057 3.283v-.007Zm.318-11.85a96.937 96.937 0 0 0-7.695 5.786C7.549 30.534 4.11 24.222 6.059 21.226l.012-.017c1.622 1.869 4.197 2.786 6.747 2.404 2.55-.382 4.684-2.005 5.593-4.252a55.16 55.16 0 0 1 5.605 1.221c-.79 3.579-1.34 7.2-1.646 10.842v-.005Zm28.49-3.205c-.911-.545-1.83-1.084-2.76-1.607a131.13 131.13 0 0 0-4.499-2.407 89.57 89.57 0 0 1 6.168-2.362 75.87 75.87 0 0 1 1.089 6.382l.001-.006ZM38.833 3.78c3.687 0 7.542 5.572 10.014 14.34a97.839 97.839 0 0 0-9.796 3.898 97.005 97.005 0 0 0-10.213-3.98c2.471-8.713 6.318-14.25 9.995-14.25v-.008ZM27.916 21.75a89.75 89.75 0 0 1 6.604 2.47 118.956 118.956 0 0 0-4.486 2.427c-1.109.632-2.201 1.28-3.274 1.937a76.13 76.13 0 0 1 1.155-6.827l.001-.007Zm-1.19 29.314c1.29.792 2.6 1.564 3.93 2.316 1.322.744 2.662 1.464 4.01 2.157a90.54 90.54 0 0 1-6.76 2.612c-.5-2.25-.894-4.618-1.19-7.078l.01-.007Zm4.517 24.152c-1.726 0-3.124-1.3-3.124-2.905 0-1.605 1.398-2.906 3.124-2.906 1.726 0 3.125 1.301 3.125 2.906-.002 1.608-1.404 2.91-3.134 2.91l.01-.005Zm7.598.992a3.994 3.994 0 0 1-1.518-.319c1.41-2.061 1.5-4.673.233-6.813-1.265-2.14-3.685-3.47-6.313-3.468-.395 0-.79.03-1.18.09a48.9 48.9 0 0 1-1.238-3.83 98.43 98.43 0 0 0 10.334-4.151 99.386 99.386 0 0 0 9.766 3.904c-2.477 8.926-6.36 14.595-10.091 14.595l.007-.008ZM49.83 57.899a91.932 91.932 0 0 1-6.187-2.385c1.337-.696 2.669-1.42 3.995-2.175 1.106-.63 2.197-1.276 3.273-1.937a78.978 78.978 0 0 1-1.089 6.505l.008-.008Zm1.55-11.378a113.036 113.036 0 0 1-12.227 6.952 111.449 111.449 0 0 1-12.874-7.285 95.454 95.454 0 0 1-.203-6.196c0-2.204.078-4.393.224-6.53a112.085 112.085 0 0 1 12.771-7.213 111.697 111.697 0 0 1 6.926 3.597c1.825 1.029 3.618 2.11 5.356 3.218a95.01 95.01 0 0 1 .255 6.932c-.015 2.208-.09 4.398-.237 6.532l.01-.007ZM72.695 58.76c-1.199 1.839-4.274 2.28-6.643 2.328a43.689 43.689 0 0 1-12.331-1.961 82.686 82.686 0 0 0 1.583-10.561 95.691 95.691 0 0 0 8.258-6.262c7.485 6.873 11.138 13.377 9.124 16.464l.01-.008ZM55.587 35.931a88.41 88.41 0 0 1 4.974 3.798 87.137 87.137 0 0 1-4.96 3.886c.043-1.2.066-2.402.068-3.61 0-1.37-.029-2.73-.082-4.074Zm9.006-5.353a6.358 6.358 0 0 0 1.436 4.012c-.781.83-1.62 1.668-2.516 2.516a96.581 96.581 0 0 0-8.257-6.102 81.632 81.632 0 0 0-1.598-10.366c9.333-2.62 16.457-2.475 18.386.448a4.01 4.01 0 0 1 .495 2.833 7.83 7.83 0 0 0-.744-.036c-3.972.005-7.192 2.995-7.202 6.688v.007Zm7.202-2.906c1.726 0 3.125 1.301 3.125 2.906 0 1.604-1.399 2.905-3.125 2.905-1.725 0-3.124-1.301-3.124-2.905-.002-1.608 1.396-2.913 3.126-2.918l-.002.012Z" clip-rule="evenodd"/></mask><g mask="url(#c)"><mask id="d" width="3553" height="24688" x="-1946" y="-3710" maskUnits="userSpaceOnUse" style="mask-type:alpha"><path fill="#000" d="M-1945.1 20977.5h3551.6V-3710h-3551.6v24687.5Z"/></mask><g mask="url(#d)"><path fill="#151515" d="M-12-12.5H92v105H-12v-105Z"/></g></g></g></g><defs><clipPath id="a"><path fill="#fff" d="M1 0h78v80H1z"/></clipPath><clipPath id="b"><path fill="#fff" d="M1 0h78v80H1z"/></clipPath></defs></svg>
