<svg enable-background="new 0 0 512 512" height="42" viewBox="0 0 512 512" width="42" xmlns="http://www.w3.org/2000/svg"><path d="m499.671 247.387c0-.001 0-.001 0 0-2.619-50.543-21.41-99.557-53.361-138.816-31.296-38.455-74.403-66.724-122.208-79.923-54.24-14.976-113.381-10.343-164.507 13.224-54.265 25.013-98.305 70.659-121.277 125.825-22.701 54.516-24.301 117.066-4.522 172.7 16.853 47.406 48.88 88.815 90.309 117.322 42.617 29.325 94.206 44.18 145.889 42.077 59.929-2.438 117.313-27.691 159.712-70.091 42.4-42.4 67.654-99.784 70.092-159.713.306-7.531.264-15.077-.127-22.605 0-.001.219 4.22 0 0zm-239.671-207.387c113.614 0 207.815 86.125 218.908 197.944-31.391.235-63.053 1.08-94.177 5.458-11.763 1.655-23.717 3.75-34.878 7.947-5.547 2.086-11.146 4.796-15.355 9.069-1.29 1.311-2.309 3.446-4.001 4.218-5.129 2.336-12.009 1.394-17.434.788-16.017-1.786-31.771-6.125-47.341-10.125-33.046-8.489-66.966-18.569-101.357-18.827-11.362-.085-22.981 1.081-33.683 5.1-4.591 1.724-8.982 3.992-12.969 6.854-5.008 3.595-9.379 8.042-14.246 11.833-17.542 13.665-39.624 24.79-62.47 20.822-4.976-52.442 9.182-105.641 39.778-148.54 28.712-40.256 70.849-70.289 118.385-83.987 19.751-5.69 40.289-8.554 60.84-8.554zm0 440c-105.893 0-196.441-75.766-216.071-178.381 30.821 2.73 59.249-13.888 81.514-33.663 10.022-8.901 22.822-11.256 35.923-11.471 16.799-.275 33.634 2.675 50.014 6.131 16.893 3.564 33.582 8.005 50.3 12.295 15.285 3.923 30.679 7.994 46.352 10.05 11.608 1.523 25.965 2.618 35.744-5.106 2.219-1.752 3.517-4.301 5.695-6.01 2.031-1.606 4.514-2.688 6.913-3.606 7.883-3.095 16.391-4.692 24.717-6.061 10.293-1.691 20.686-2.801 31.081-3.636 22.543-1.847 45.195-2.47 67.808-2.603.503 50.686-16.938 100.645-48.778 140.069-31.156 38.576-75.14 66.065-123.58 76.799-15.626 3.464-31.627 5.193-47.632 5.193z"/><path d="m145 290c-12.501 0-24.289 6.906-30.458 17.771-6.26 11.023-5.965 24.963.749 35.714 6.639 10.633 18.738 17.032 31.267 16.481 12.449-.548 23.908-7.949 29.598-19.025 11.747-22.868-5.501-50.941-31.156-50.941zm0 50c-8.165 0-15-6.835-15-15s6.835-15 15-15 15 6.835 15 15-6.835 15-15 15z"/><path d="m300 335c0-12.501-6.906-24.288-17.771-30.458-11.023-6.261-24.963-5.966-35.714.748-10.633 6.64-17.032 18.737-16.481 31.267.547 12.449 7.95 23.908 19.025 29.598 22.868 11.747 50.941-5.5 50.941-31.155zm-35 15c-8.165 0-15-6.835-15-15s6.835-15 15-15 15 6.835 15 15-6.835 15-15 15z"/><path d="m205 380c-12.501 0-24.289 6.906-30.458 17.771-6.26 11.023-5.965 24.963.749 35.714 6.639 10.633 18.738 17.032 31.267 16.481 12.449-.548 23.908-7.949 29.598-19.025 11.747-22.868-5.501-50.941-31.156-50.941zm0 50c-8.165 0-15-6.835-15-15s6.835-15 15-15 15 6.835 15 15-6.835 15-15 15z"/><path d="m405 300c-12.501 0-24.288 6.906-30.458 17.771-6.261 11.023-5.966 24.963.748 35.714 6.64 10.633 18.737 17.032 31.267 16.481 12.449-.548 23.908-7.949 29.598-19.025 11.747-22.868-5.5-50.941-31.155-50.941zm0 50c-8.165 0-15-6.835-15-15s6.835-15 15-15 15 6.835 15 15-6.835 15-15 15z"/><path d="m315 380c-12.501 0-24.288 6.906-30.458 17.771-6.261 11.023-5.966 24.963.748 35.714 6.64 10.633 18.737 17.032 31.267 16.481 12.449-.548 23.908-7.949 29.598-19.025 11.747-22.868-5.5-50.941-31.155-50.941zm0 50c-8.165 0-15-6.835-15-15s6.835-15 15-15 15 6.835 15 15-6.835 15-15 15z"/></svg>