<svg height="42" viewBox="0 0 60 60" width="42" xmlns="http://www.w3.org/2000/svg"><g id="diet_1" fill="none" fill-rule="evenodd"><g id="037---Eating-Formula" fill="rgb(0,0,0)" fill-rule="nonzero"><path id="diet_shape" d="m30 0c-16.5685425 0-30 13.4314575-30 30s13.4314575 30 30 30 30-13.4314575 30-30c-.018737-16.5607751-13.4392249-29.98126296-30-30zm0 58c-15.463973 0-28-12.536027-28-28s12.536027-28 28-28 28 12.536027 28 28c-.0176345 15.4566626-12.5433374 27.9823655-28 28z"/><path id="diet_shape" d="m32 47c-.5522847 0-1 .4477153-1 1s-.4477153 1-1 1-1 .4477153-1 1 .4477153 1 1 1c1.6568542 0 3-1.3431458 3-3 0-.5522847-.4477153-1-1-1z"/><path id="diet_shape" d="m43 38c-2.7600532.0033061-4.9966939 2.2399468-5 5 .0046911.2741799.0324558.5474783.083.817l-1.98.766c-1.0653076-1.8943725-2.9492491-3.1872735-5.1-3.5v-2.183c2.5149632-.5133647 4.2326695-2.8476987 3.9746808-5.4015243-.2579888-2.5538256-2.4078572-4.4974552-4.9746808-4.4974552s-4.716692 1.9436296-4.9746808 4.4974552c-.2579887 2.5538256 1.4597176 4.8881596 3.9746808 5.4015243v2.18c-2.1507509.3127265-4.0346924 1.6056275-5.1 3.5l-1.98-.766c.0483642-.2687054.074121-.5409919.077-.814.0185603-2.505164-1.808875-4.6422648-4.2865383-5.0129076s-4.8504974 1.1381241-5.5658575 3.5390513c-.71536 2.4009272.4447569 4.9623425 2.7212375 6.0082044 2.2764807 1.0458619 4.9755776.2574486 6.3311583-1.8493481l1.975.765c-.6477482 2.8090405.4928196 5.7279298 2.8734555 7.353617s5.5144531 1.6256872 7.895089 0 3.5212037-4.5445765 2.8734555-7.353617l1.975-.765c1.2890824 2.0250306 3.8353732 2.8481766 6.0659108 1.9609427s3.5157703-3.2344329 3.0617504-5.5916236-2.5191489-4.0590745-4.9196612-4.0543191zm-26 8c-1.6568542 0-3-1.3431458-3-3s1.3431458-3 3-3 3 1.3431458 3 3-1.3431458 3-3 3zm10-12c0-1.6568542 1.3431458-3 3-3s3 1.3431458 3 3-1.3431458 3-3 3-3-1.3431458-3-3zm3 19c-2.7614237 0-5-2.2385763-5-5s2.2385763-5 5-5 5 2.2385763 5 5c-.0033061 2.7600532-2.2399468 4.9966939-5 5zm13-7c-1.6568542 0-3-1.3431458-3-3s1.3431458-3 3-3 3 1.3431458 3 3-1.3431458 3-3 3z"/><path id="diet_shape" d="m20.534 32.705c.338731-.3793949.338731-.9526051 0-1.332-.12-.135-2.985-3.294-6.654-3.294-.2 0-.386.013-.576.03l2.271-2.271c1.6074615 1.5211483 3.6989502 2.4281209 5.908 2.562 3.668 0 6.534-3.159 6.655-3.293.3393266-.3795494.3393266-.9534506 0-1.333-.12-.135-2.987-3.295-6.655-3.295-.2 0-.386.013-.577.03l2.277-2.276c1.6080605 1.5204123 3.6999472 2.4263419 5.909 2.559 3.669 0 6.534-3.16 6.654-3.3.338731-.3793949.338731-.9526051 0-1.332-1.0456176-1.1066291-2.2960695-1.999809-3.682-2.63 2.463-2.605 2.262-6.729 2.251-6.906-.0290843-.50678312-.4332481-.91137687-.94-.941-.176-.007-4.3-.212-6.906 2.253-.6299913-1.3863386-1.5231887-2.6371546-2.63-3.683-.3793949-.33873101-.9526051-.33873101-1.332 0-.135.121-3.3 2.986-3.3 6.654.1321274 2.2079055 1.0373826 4.2988077 2.557 5.906l-2.264 2.276c.016-.189.029-.378.029-.572 0-3.669-3.159-6.534-3.294-6.654-.3793949-.338731-.9526051-.338731-1.332 0-.134.12-3.294 2.985-3.294 6.654.1321274 2.2079055 1.0373826 4.2988077 2.557 5.906l-2.269 2.27c.017-.189.03-.379.03-.573 0-3.668-3.16-6.534-3.295-6.654-.37939488-.338731-.95260512-.338731-1.332 0-.14.12-3.3 2.986-3.3 6.654.13276107 2.2082437 1.03830958 4.2993598 2.558 5.907l-1 1c-.25995658.2510745-.3642126.6228779-.27269716.9725073.09151544.3496295.3645604.6226744.71418984.7141899.34962943.0915154.72143285-.0127406.97250732-.2726972l1-1c1.60789704 1.5200531 3.6993375 2.4259427 5.908 2.559 3.669 0 6.534-3.16 6.654-3.295zm5.41-8.267c-1.2197526 1.1435788-2.7937702 1.8358502-4.461 1.962-1.6704753-.1273382-3.2479151-.8192534-4.473-1.962 1.2239904-1.1439571 2.802235-1.8351669 4.473-1.959 1.6661053.1283102 3.2391293.8190867 4.461 1.959zm3.148-5.65c-1.6699796-.1273622-3.2469926-.8188923-4.472-1.961 1.2251477-1.1417431 2.8021457-1.832914 4.472-1.96 1.6655682.1288732 3.2378829.8200006 4.459 1.96-1.2208436 1.140566-2.7932477 1.8320853-4.459 1.961zm-1.34-9.319c1.2711171-1.08823839 2.8755136-1.71017135 4.548-1.763-.0523881 1.67131375-.6756406 3.2742656-1.766 4.542-.2530892.2485364-.5343258.4666793-.838.65-.2-.018-.4-.031-.6-.031-.8175302.0064826-1.6279114.152933-2.396.433.2788614-.7670294.4252811-1.5758884.433-2.392 0-.2-.013-.4-.032-.6.184096-.3037141.402533-.58523284.651-.839zm-4.579-3.019c1.1403594 1.22058134 1.8318636 2.79259849 1.961 4.458-.1273492 1.6696876-.8188968 3.246388-1.961 4.471-1.1421032-1.224612-1.8336508-2.8013124-1.961-4.471.1291364-1.66540151.8206406-3.23741866 1.961-4.458zm-7.607 7.606c1.1426646 1.219958 1.8335864 2.7941163 1.958 4.461-.127073 1.6695622-.8182614 3.2462476-1.96 4.471-1.1417386-1.2247524-1.832927-2.8014378-1.96-4.471.1290603-1.6665009.8209254-3.2395948 1.962-4.461zm-7.6 7.606c1.13853627 1.2212831 1.82824429 2.793225 1.956 4.458-.12734917 1.6696876-.81889681 3.246388-1.961 4.471-1.14210319-1.224612-1.83365083-2.8013124-1.961-4.471.12913641-1.6654015.82064059-3.2374187 1.961-4.458zm5.919 8.417c1.6655682.1288732 3.2378829.8200006 4.459 1.96-1.2221546 1.1415998-2.7964936 1.8331944-4.464 1.961-1.6699796-.1273622-3.2469926-.8188923-4.472-1.961 1.2251477-1.1417431 2.8021457-1.832914 4.472-1.96z"/><path id="diet_shape" d="m37.477 14.148c-.4701572.2885755-.6178172.9033782-.33 1.374v.007c1.5419998 2.7114542 2.1280359 5.862455 1.664 8.947-.073.528-.2 1.032-.407 1.919-.1725091.7006438-.2545104 1.420508-.244 2.142.1423986 2.4034281 1.3676477 4.6124244 3.3311657 6.0057446 1.963518 1.3933201 4.4531893 1.820446 6.7688343 1.1612554 2.2289134-.5598247 4.0681811-2.1290471 4.972-4.242 1.539-3.554.51-7.823-.84-10.4-3.842-7.343-14.061-7.44-14.915-6.914zm13.15 7.843c1.235 2.358 1.954 5.955.775 8.676-.6620119 1.5599826-2.0243267 2.713795-3.672 3.11-1.7260364.4966252-3.5841019.1854711-5.0541778-.8463792s-2.3942314-2.6735448-2.5138222-4.4656208c-.0024606-.5522368.0647363-1.1025793.2-1.638.191-.825.345-1.431.435-2.077.4175022-2.9645737.0217407-5.9868781-1.145-8.744 4.527.241 8.924 2.073 10.975 5.985z"/><path id="diet_shape" d="m46.965 31.876c.0930262-.0002608.1855695-.0133851.275-.039 1.3725334-.3792809 2.39734-1.5248599 2.622-2.931.2363758-1.3611381.1511046-2.7586964-.249-4.081-.0980694-.3436895-.3720454-.6089523-.718724-.6958664-.3466785-.0869142-.7133908.0177246-.962.2745-.2486091.2567753-.3413454.6266769-.243276.9703664.3129512 1.0143964.3855323 2.0877058.212 3.135-.0787849.6720656-.558763 1.228476-1.212 1.405-.4806087.1364053-.7868097.6065857-.7172161 1.1013056.0695936.49472.4936274.8621762.9932161.8606944z"/></g></g></svg>