<svg id="guava_1" height="42" viewBox="0 0 512 512" width="42" xmlns="http://www.w3.org/2000/svg"><path id="guava_x30_1" d="m473.191 160.218c-30.158-29.495-76.374-46.745-120.582-47.815-16.632-.401-36.916.379-70.292 13.058-10.396-15.438-22.102-28.519-35.689-31.362-14.106-2.955-23.856 3.035-25.55 3.288.054-7.385 1.639-18.792 1.934-21.89.771-8.073-10.748-10.699-13.729-5.814-2.121 3.483-3.289 14.699-5.889 22.711-3.291-1.191-9.986-7.699-21.015-8.084-25.685-.898-134.151 35.83-172.513 143.289-17.42 48.797-11.813 94.343 17.134 139.238 25.509 39.572 61.77 41.156 83.436 42.078 30.229 1.287 42.814 20.744 64.679 28.713 15.017 5.471 29.202 7.148 42.683 7.148 30.109 0 69.861-20.111 93.142-37.861 21.028 5.604 41.832 8.711 60.685 8.711 16.373 0 31.502-2.195 44.966-6.516 35.415-11.381 64.065-37.236 80.673-72.795 15.958-34.164 31.076-122.158-24.073-176.097zm-326.98 245.328c-1.561-.971-7.73-6.783-15.441-9.412-5.412-1.844-14.449-2.891-19.33-2.688.795-4.09 2.188-9.123 3.395-11.619 1.463-.303 4.659-4.248 14.88-3.176 10.222 1.074 19.308 9.754 20.486 12.275-.207 3.151-2.14 10.518-3.99 14.62zm-8.72-41.846c-11.781-1.404-16.697 1.25-23.524 1.139-15.618-.25-27.349-3.295-36.901-10.373-46.676-34.586-32.07-100.243-22.506-122.623 31.428-73.534 89.741-100.551 109.51-104.981 7.127-1.596 9.396-.37 11.34 3.037 3.589 6.289 6.968 9.597 17.099 11.254 5.481.895 17.812-4.318 24.88-1.746 10.452 3.804 13.324 21.822 19.854 41.367 5.734 17.179 12.874 38.55 23.25 59.666 9.155 18.633 22.217 55.792 6.842 95.276-13.087 33.615-34.222 43.994-55.111 50.203-6.361 1.891-12.554 2.848-18.41 2.848h-.004c-18.674 0-31.309-9.598-40.535-16.6-5.554-4.221-10.919-7.885-15.784-8.467zm45.269 59.045c-8.07-.668-16.002-4.697-23.753-9.494 2.363-4.613 4.328-10.846 5.357-16.234 8.073 3.849 17.76 6.73 29.444 6.73h.004c7.303 0 14.932-1.166 22.679-3.469 22-6.539 49.246-19.168 64.804-59.125 17.452-44.824 2.883-86.481-7.357-107.321-9.932-20.213-16.603-40.182-22.487-57.803-9.573-28.663-15.59-49.27-30.497-51.176-7.781-.994-17.769 4.312-26.022 1.513-8.117-2.752-11.967-15.239-25.313-15.195-14.806.05-94.904 35.405-128.832 114.786-10.856 25.406-27.11 100.178 27.36 140.543 8.912 6.602 19.406 10.684 31.797 12.385-1.519 4.135-2.92 9.334-3.605 14.074-18.669-1.994-40.061-8.359-56.744-34.24-26.623-41.289-31.588-81.354-15.617-126.083 37.55-105.189 145.2-135.064 158.536-133.389 13.338 1.675 13.334 22.768 24.772 22.521 11.503-.248 15.517-8.821 25.708-5.412 13.57 4.539 31.223 48.979 42.338 77.922 5.552 14.451 10.794 28.101 15.604 37.625 24.888 49.302 25.057 82.708.646 127.667-25.45 46.888-85.908 65.009-108.822 63.175zm101.702-16.029c-18.164 10.967-35.239 20.271-56.633 22.539 28.643-10.578 59.844-31.078 76.921-62.535 26.828-49.418 26.711-87.785-.44-141.564-4.47-8.853-9.58-22.161-14.99-36.249-12.695-33.053-23.563-59.531-35.853-74.536 13.584 11.257 26.714 35.837 36.851 54.851 4.736 8.889 49.771 71.934 58.093 117.625 9.192 50.484-12.491 88.8-63.949 119.869zm199.228-76.74c-14.824 31.744-40.284 54.781-71.687 64.867-11.979 3.853-25.566 5.804-40.382 5.804-14.513 0-30.316-2.021-46.479-5.648 32.313-30.062 44.861-66.459 38.068-110.438-5.693-36.87-26.247-70.454-43.176-94.009 0 0-25.411-36.104-29.407-51.776 25.374-11.793 49.249-12.104 61.979-11.39 40.39 2.269 82.644 16.685 110.106 43.544 48.934 47.853 34.893 129.258 20.978 159.046zm-10.782-63.077c-1.45 3.633-10.998.414-13.029 3.219-5.298 7.324 4.247 11.504 5.752 15.043 4.886 11.48-16.147 24.816-14.938 36.262.821 7.768 7.798 8.455 14.625.916 7.287-8.045 18.498-38.67 18.863-54.91.218-9.691-3.258-25.437-11.092-22.606-7.834 2.83 2.953 14.242-.181 22.076zm-260.642-1.931c-3.176 2.895-2.658 8.633 1.16 12.801 3.809 4.181 9.471 5.211 12.641 2.316 3.174-2.9 2.658-8.631-1.156-12.811-3.809-4.17-9.479-5.203-12.645-2.306zm.174-24.343c3.812 4.174 9.476 5.208 12.646 2.313 3.177-2.899 2.66-8.627-1.155-12.804-3.809-4.172-9.476-5.213-12.646-2.313-3.175 2.898-2.656 8.634 1.155 12.804zm-5.086-35.734c5.408-1.644 8.783-6.305 7.537-10.416-1.25-4.11-6.642-6.115-12.055-4.474-5.404 1.636-8.785 6.304-7.533 10.414 1.242 4.116 6.641 6.121 12.051 4.476zm4.551 115.305c-3.165 2.904-2.65 8.631 1.158 12.805 3.813 4.182 9.481 5.217 12.651 2.32 3.175-2.902 2.657-8.633-1.155-12.812-3.813-4.17-9.476-5.207-12.654-2.313zm-19.068 10.18c-3.612-2.332-9.019-.355-12.075 4.398-3.059 4.75-2.611 10.486 1.004 12.811 3.61 2.326 9.019.352 12.08-4.396 3.059-4.758 2.61-10.497-1.009-12.813zm-20.569-20.348c3.614 2.324 9.02.356 12.084-4.396 3.056-4.764 2.604-10.493-1.009-12.815-3.616-2.328-9.026-.363-12.079 4.395-3.057 4.756-2.606 10.494 1.004 12.816zm-38.603-24.978c-3.61-2.324-9.018-.35-12.071 4.398-3.067 4.754-2.61 10.496 1.002 12.82 3.616 2.325 9.019.356 12.079-4.408 3.06-4.744 2.613-10.484-1.01-12.81zm-44.458-11.438c-3.61-2.329-9.024-.361-12.077 4.4-3.057 4.75-2.609 10.493 1.005 12.813 3.613 2.321 9.021.356 12.083-4.402 3.058-4.748 2.605-10.486-1.011-12.811zm3.274-29.365c5.563 1.056 10.711-1.52 11.506-5.747.797-4.224-3.063-8.495-8.625-9.541-5.551-1.046-10.698 1.528-11.493 5.752-.794 4.227 3.067 8.497 8.612 9.536zm33.334-62.87c-3.863 1.896-4.959 7.549-2.459 12.62s7.652 7.64 11.506 5.745c3.856-1.902 4.949-7.555 2.455-12.631-2.502-5.066-7.653-7.636-11.502-5.734zm-28.758 131.419c-4.777 3.004-6.8 8.398-4.513 12.041 2.29 3.633 8.024 4.135 12.81 1.123 4.787-3.002 6.804-8.395 4.519-12.033-2.29-3.639-8.019-4.143-12.816-1.131z"/></svg>