<svg fill="none" xmlns="http://www.w3.org/2000/svg" viewBox="0 0 44 34">
  <mask id="a" maskUnits="userSpaceOnUse" x="0" y="-.8" width="44" height="35" fill="#000">
    <path fill="#fff" d="M0-.8h44v35H0z"/>
    <path d="M22 33.8c-3.15 0-4.27-2.63-4.27-4.91.03-1.38.29-2.75.75-4.05.49-1.32.75-2.72.77-4.12a1.72 1.72 0 0 0-.53-1.26 1.8 1.8 0 0 0-1.29-.52H1.47a.47.47 0 0 1-.34-.13.45.45 0 0 1-.13-.33.45.45 0 0 1 .14-.32.47.47 0 0 1 .33-.14h15.96a2.75 2.75 0 0 1 1.97.77 2.62 2.62 0 0 1 .8 1.93c-.03 1.5-.3 2.98-.82 4.4a11.8 11.8 0 0 0-.7 3.77c0 .93.23 3.94 3.33 3.94 3.09 0 3.32-3.06 3.32-3.94a11.8 11.8 0 0 0-.71-3.77c-.51-1.42-.79-2.9-.81-4.4a2.57 2.57 0 0 1 .79-1.93 2.7 2.7 0 0 1 1.97-.77h15.96a.48.48 0 0 1 .33.14.46.46 0 0 1 0 .65.46.46 0 0 1-.33.13H26.57a1.84 1.84 0 0 0-1.3.52 1.76 1.76 0 0 0-.52 1.26c.02 1.4.28 2.8.77 4.12.48 1.3.74 2.67.78 4.05 0 2.26-1.15 4.91-4.3 4.91ZM17.43 13a.48.48 0 0 1-.33-.13.45.45 0 0 1-.14-.32c0-3.64-1.88-5.5-5.6-5.5a.48.48 0 0 1-.34-.13.45.45 0 0 1 0-.65c.1-.08.21-.13.34-.13 3.72 0 5.6-1.84 5.6-5.48 0-.12.05-.24.14-.33a.48.48 0 0 1 .67 0c.09.1.13.2.13.33 0 3.64 1.9 5.48 5.63 5.48.12 0 .24.05.33.13a.45.45 0 0 1 0 .65.48.48 0 0 1-.33.14c-3.73 0-5.63 1.85-5.63 5.49 0 .12-.04.24-.13.32a.48.48 0 0 1-.34.14Zm-3.16-6.4a5.2 5.2 0 0 1 3.16 3.1 5.05 5.05 0 0 1 3.18-3.1 5.16 5.16 0 0 1-3.18-3.09 4.99 4.99 0 0 1-3.16 3.09ZM28.08 15.98a.48.48 0 0 1-.33-.14.45.45 0 0 1-.14-.32 3.46 3.46 0 0 0-1.03-2.94 3.63 3.63 0 0 0-3-1 .48.48 0 0 1-.33-.14.45.45 0 0 1-.14-.32.44.44 0 0 1 .13-.33.46.46 0 0 1 .34-.13 3.71 3.71 0 0 0 3.02-1.04 3.53 3.53 0 0 0 1.01-2.97c0-.12.05-.24.14-.33a.48.48 0 0 1 .67 0c.08.1.13.2.13.33a3.47 3.47 0 0 0 1.01 2.97 3.64 3.64 0 0 0 3.03 1.04.47.47 0 0 1 .34.13.45.45 0 0 1 .13.33c0 .12-.05.23-.14.32a.48.48 0 0 1-.33.14 3.7 3.7 0 0 0-3 1 3.52 3.52 0 0 0-1.04 2.94c0 .12-.05.23-.13.32a.48.48 0 0 1-.34.14Zm-2.05-4.92c.92.38 1.66 1.1 2.05 2 .4-.9 1.13-1.61 2.05-2a3.87 3.87 0 0 1-2.05-2c-.4.9-1.13 1.62-2.05 2Z"/>
  </mask>
  <path d="M22 33.8c-3.15 0-4.27-2.63-4.27-4.91.03-1.38.29-2.75.75-4.05.49-1.32.75-2.72.77-4.12a1.72 1.72 0 0 0-.53-1.26 1.8 1.8 0 0 0-1.29-.52H1.47a.47.47 0 0 1-.34-.13.45.45 0 0 1-.13-.33.45.45 0 0 1 .14-.32.47.47 0 0 1 .33-.14h15.96a2.75 2.75 0 0 1 1.97.77 2.62 2.62 0 0 1 .8 1.93c-.03 1.5-.3 2.98-.82 4.4a11.8 11.8 0 0 0-.7 3.77c0 .93.23 3.94 3.33 3.94 3.09 0 3.32-3.06 3.32-3.94a11.8 11.8 0 0 0-.71-3.77c-.51-1.42-.79-2.9-.81-4.4a2.57 2.57 0 0 1 .79-1.93 2.7 2.7 0 0 1 1.97-.77h15.96a.48.48 0 0 1 .33.14.46.46 0 0 1 0 .65.46.46 0 0 1-.33.13H26.57a1.84 1.84 0 0 0-1.3.52 1.76 1.76 0 0 0-.52 1.26c.02 1.4.28 2.8.77 4.12.48 1.3.74 2.67.78 4.05 0 2.26-1.15 4.91-4.3 4.91ZM17.43 13a.48.48 0 0 1-.33-.13.45.45 0 0 1-.14-.32c0-3.64-1.88-5.5-5.6-5.5a.48.48 0 0 1-.34-.13.45.45 0 0 1 0-.65c.1-.08.21-.13.34-.13 3.72 0 5.6-1.84 5.6-5.48 0-.12.05-.24.14-.33a.48.48 0 0 1 .67 0c.09.1.13.2.13.33 0 3.64 1.9 5.48 5.63 5.48.12 0 .24.05.33.13a.45.45 0 0 1 0 .65.48.48 0 0 1-.33.14c-3.73 0-5.63 1.85-5.63 5.49 0 .12-.04.24-.13.32a.48.48 0 0 1-.34.14Zm-3.16-6.4a5.2 5.2 0 0 1 3.16 3.1 5.05 5.05 0 0 1 3.18-3.1 5.16 5.16 0 0 1-3.18-3.09 4.99 4.99 0 0 1-3.16 3.09ZM28.08 15.98a.48.48 0 0 1-.33-.14.45.45 0 0 1-.14-.32 3.46 3.46 0 0 0-1.03-2.94 3.63 3.63 0 0 0-3-1 .48.48 0 0 1-.33-.14.45.45 0 0 1-.14-.32.44.44 0 0 1 .13-.33.46.46 0 0 1 .34-.13 3.71 3.71 0 0 0 3.02-1.04 3.53 3.53 0 0 0 1.01-2.97c0-.12.05-.24.14-.33a.48.48 0 0 1 .67 0c.08.1.13.2.13.33a3.47 3.47 0 0 0 1.01 2.97 3.64 3.64 0 0 0 3.03 1.04.47.47 0 0 1 .34.13.45.45 0 0 1 .13.33c0 .12-.05.23-.14.32a.48.48 0 0 1-.33.14 3.7 3.7 0 0 0-3 1 3.52 3.52 0 0 0-1.04 2.94c0 .12-.05.23-.13.32a.48.48 0 0 1-.34.14Zm-2.05-4.92c.92.38 1.66 1.1 2.05 2 .4-.9 1.13-1.61 2.05-2a3.87 3.87 0 0 1-2.05-2c-.4.9-1.13 1.62-2.05 2Z" fill="#000"/>
  <path d="M22 33.8c-3.15 0-4.27-2.63-4.27-4.91.03-1.38.29-2.75.75-4.05.49-1.32.75-2.72.77-4.12a1.72 1.72 0 0 0-.53-1.26 1.8 1.8 0 0 0-1.29-.52H1.47a.47.47 0 0 1-.34-.13.45.45 0 0 1-.13-.33.45.45 0 0 1 .14-.32.47.47 0 0 1 .33-.14h15.96a2.75 2.75 0 0 1 1.97.77 2.62 2.62 0 0 1 .8 1.93c-.03 1.5-.3 2.98-.82 4.4a11.8 11.8 0 0 0-.7 3.77c0 .93.23 3.94 3.33 3.94 3.09 0 3.32-3.06 3.32-3.94a11.8 11.8 0 0 0-.71-3.77c-.51-1.42-.79-2.9-.81-4.4a2.57 2.57 0 0 1 .79-1.93 2.7 2.7 0 0 1 1.97-.77h15.96a.48.48 0 0 1 .33.14.46.46 0 0 1 0 .65.46.46 0 0 1-.33.13H26.57a1.84 1.84 0 0 0-1.3.52 1.76 1.76 0 0 0-.52 1.26c.02 1.4.28 2.8.77 4.12.48 1.3.74 2.67.78 4.05 0 2.26-1.15 4.91-4.3 4.91ZM17.43 13a.48.48 0 0 1-.33-.13.45.45 0 0 1-.14-.32c0-3.64-1.88-5.5-5.6-5.5a.48.48 0 0 1-.34-.13.45.45 0 0 1 0-.65c.1-.08.21-.13.34-.13 3.72 0 5.6-1.84 5.6-5.48 0-.12.05-.24.14-.33a.48.48 0 0 1 .67 0c.09.1.13.2.13.33 0 3.64 1.9 5.48 5.63 5.48.12 0 .24.05.33.13a.45.45 0 0 1 0 .65.48.48 0 0 1-.33.14c-3.73 0-5.63 1.85-5.63 5.49 0 .12-.04.24-.13.32a.48.48 0 0 1-.34.14Zm-3.16-6.4a5.2 5.2 0 0 1 3.16 3.1 5.05 5.05 0 0 1 3.18-3.1 5.16 5.16 0 0 1-3.18-3.09 4.99 4.99 0 0 1-3.16 3.09ZM28.08 15.98a.48.48 0 0 1-.33-.14.45.45 0 0 1-.14-.32 3.46 3.46 0 0 0-1.03-2.94 3.63 3.63 0 0 0-3-1 .48.48 0 0 1-.33-.14.45.45 0 0 1-.14-.32.44.44 0 0 1 .13-.33.46.46 0 0 1 .34-.13 3.71 3.71 0 0 0 3.02-1.04 3.53 3.53 0 0 0 1.01-2.97c0-.12.05-.24.14-.33a.48.48 0 0 1 .67 0c.08.1.13.2.13.33a3.47 3.47 0 0 0 1.01 2.97 3.64 3.64 0 0 0 3.03 1.04.47.47 0 0 1 .34.13.45.45 0 0 1 .13.33c0 .12-.05.23-.14.32a.48.48 0 0 1-.33.14 3.7 3.7 0 0 0-3 1 3.52 3.52 0 0 0-1.04 2.94c0 .12-.05.23-.13.32a.48.48 0 0 1-.34.14Zm-2.05-4.92c.92.38 1.66 1.1 2.05 2 .4-.9 1.13-1.61 2.05-2a3.87 3.87 0 0 1-2.05-2c-.4.9-1.13 1.62-2.05 2Z" stroke="#000" stroke-width=".4" mask="url(#a)"/>
</svg>
