<svg fill="none" xmlns="http://www.w3.org/2000/svg" viewBox="0 0 43 42">
  <path d="M24.67.46c-.75.27-1.29.52-1.38.65-.34.44-.12 1.13.4 1.27l.26.09-.33.6a11.66 11.66 0 0 0-1.4 5.11 8.87 8.87 0 0 0 .44 3.58l.28.9-.88 2.03-1.1 2.6c-.13.32-.26.58-.29.58-.09 0-.27-.5-.4-1.15-.38-1.7.04-3.55 1.01-4.46.4-.38.47-.5.47-.81a.7.7 0 0 0-.26-.61c-.33-.31-.49-.3-1 .04-1.2.82-1.96 2.93-1.83 5.02a7.6 7.6 0 0 0 1.1 3.59l.2.35-.43 1.26c-.23.7-.6 1.88-.82 2.63-.22.75-.43 1.4-.47 1.46-.12.14-.63-.83-.87-1.61-.16-.54-.2-.95-.2-1.72 0-1.27.22-1.88.9-2.48.4-.37.46-.47.46-.8 0-.3-.06-.44-.25-.6-.3-.26-.56-.26-.93-.03-2.24 1.48-2.3 6-.12 8.56l.57.66-.25 1.43c-.62 3.7-.53 6.65.23 8.26.9 1.93 3.27 2.54 4.53 1.18.5-.52.7-1.15.78-2.19.07-.95-.1-1.6-.63-2.56a5.56 5.56 0 0 1-.82-3.16c-.06-1.74-.01-1.98.4-2.14a3.4 3.4 0 0 0 1.8-2.17c.07-.5-.15-.85-.57-.93-.43-.09-.7.08-.89.59-.2.48-.48.8-.48.55 0-.26.37-2.46.57-3.41l.2-.9.69.06c1.25.11 2.5-.31 3-1.03.9-1.28.53-3.22-.75-3.89-.38-.2-.47-.21-.72-.1-.32.15-.46.37-.46.78 0 .21.13.4.47.75.4.39.47.51.47.83 0 .65-.6 1.08-1.56 1.08-.5 0-.69-.09-.69-.28 0-.08.34-1.25.76-2.6l.75-2.46.44.21c.61.3 1.85.3 2.46.01a2.78 2.78 0 0 0 1.41-3.5c-.35-1-1.22-1.65-1.7-1.25-.42.35-.47.9-.1 1.26.59.6.65 1.17.17 1.69s-1.35.6-1.85.16l-.22-.2.36-.93c.72-1.91 1.4-3.53 2.45-5.81.6-1.29 1.07-2.44 1.07-2.56 0-.12-.1-.33-.23-.46-.3-.33-.73-.34-1.01-.03-.26.27-1.97 3.34-3.12 5.57-1 1.94-1.03 1.93-1.03-.3 0-1.15.05-1.67.18-2.21.21-.87.77-2.26 1.16-2.93.3-.5.3-.5.3-.2 0 .5.32.85.75.85.28 0 .4-.06.55-.26.18-.24.2-.4.2-1.83V.58l-.27-.3c-.16-.16-.38-.29-.5-.28-.12 0-.76.2-1.43.46Zm-3.69 21.98a42.8 42.8 0 0 0-.63 3.79c-.04.26-.1.33-.27.33a.68.68 0 0 1-.36-.13c-.15-.11-.13-.22.2-1.44a93.5 93.5 0 0 1 1.23-3.98c0-.02.03-.02.06.01.03.04-.08.67-.23 1.42Zm-1.31 5.67.44.13.04 1.7a7.1 7.1 0 0 0 .97 4.08c.33.58.44.85.47 1.3.13 1.53-.6 2.22-1.72 1.64-.47-.25-.8-.8-1.04-1.68a21.14 21.14 0 0 1 .38-7.3c.01 0 .22.05.46.13Z" fill="#000"/>
  <path d="M11.28 28.58c-2.23.42-3.29.5-6.9.5h-3.3l-.23.26a.82.82 0 0 0-.23.55c0 .2.08.4.23.56l.22.25h3.31c3.69 0 4.58-.06 7.14-.51 1.9-.35 2.26-.34 2.6.06l.21.25-.12 1.36c-.28 3.12.19 5.47 1.46 7.38 2.1 3.2 6.33 3.7 8.76 1.07 1.17-1.27 1.63-2.6 1.63-4.76 0-1.2-.02-1.45-.25-2.17a9.1 9.1 0 0 0-.67-1.57c-.5-.89-.55-1.29-.2-1.66.3-.33.41-.32 2.4.04 2.55.46 3.4.51 9.31.51h5.51l.23-.25c.28-.3.3-.75.06-1.07l-.18-.24-6.28-.06-6.26-.06-2.02-.38c-2.64-.5-3.1-.45-3.88.4a2.4 2.4 0 0 0-.6 1.88c.03.55.11.78.57 1.64a5.7 5.7 0 0 1 .8 3.38c-.18 2.68-1.54 4.26-3.82 4.43a4.38 4.38 0 0 1-4.05-2.2 9.74 9.74 0 0 1-1.07-5.14c.02-.6.07-1.44.1-1.9.08-1-.08-1.57-.57-2.03-.9-.86-1.65-.96-3.91-.52Z" fill="#000"/>
</svg>
