<svg fill="none" xmlns="http://www.w3.org/2000/svg" viewBox="0 0 43 32">
  <path d="M14.55.13c-1.45.24-2.3.6-4.54 1.87-2.77 1.58-3.8 2.33-5.06 3.65a15.59 15.59 0 0 0 13.84 26.14 4.99 4.99 0 0 1 2.33 0c1.17.18 3.88.26 5.22.13a23.3 23.3 0 0 0 15.11-7.47c1.2-1.35 1.3-1.54 1.04-2.04-.15-.3-.87-.61-2.34-1.03-1.94-.56-3.6-.82-5.7-.92l-1.24-.05.58-.5c.32-.27 1-.92 1.52-1.45A23.02 23.02 0 0 0 41.58 6.3c.12-.66.12-.76 0-1-.25-.53-.65-.56-2.48-.15-2.8.62-5.7 1.91-8.12 3.6l-.96.66-.56-.94C26.69 3.82 22.36.71 17.82.1c-.85-.11-2.48-.1-3.27.04Zm3.38 1.65c1.73.3 3.83 1.19 5.4 2.3.9.64 2.51 2.17 3.23 3.06a17.8 17.8 0 0 1 3.9 9.65c.43 6.1-2.8 10.62-7.94 11.19-2.96.32-6.42-.96-9.23-3.42a18.2 18.2 0 0 1-5.46-9.1c-.61-2.54-.55-5.47.17-7.59 1.1-3.32 3.54-5.52 6.75-6.1.83-.15 2.26-.15 3.18 0Zm-11.3 5c-.6 1.64-.85 3.1-.85 5.06 0 .76.05 1.72.13 2.24 1.01 7.28 6.5 13.75 12.94 15.24.46.1 1.04.23 1.29.27l.45.08-.5.14c-1.3.4-2.06.5-3.89.5-1.52 0-1.88-.03-2.62-.2a13.9 13.9 0 0 1-9.8-7.38 13.9 13.9 0 0 1 3.1-16.66c.02 0-.1.32-.24.72Zm33.16.17a21.8 21.8 0 0 1-7.51 12.08c-.13.08-.15-.04-.15-1.2 0-2.24-.47-4.7-1.28-6.6l-.11-.27.46-.37c1.4-1.09 3.7-2.36 5.52-3.03a28.8 28.8 0 0 1 3.06-.9c.03-.01.04.13 0 .3Zm-3.37 15.33c1.1.13 2.57.45 3.44.73l.57.18-.88.87a21.58 21.58 0 0 1-15.14 6.3h-1.18l1.47-.85c2.46-1.41 2.63-1.52 3.25-2.02a10.43 10.43 0 0 0 3.27-4.52l.31-.78.6-.05c.91-.08 3.18 0 4.3.14Z" fill="#000"/>
  <path d="M15.22 4.31a6.03 6.03 0 0 0-3.35 1.89c-.54.57-.74.85-1.1 1.61a9.26 9.26 0 0 0-.94 4.83c.23 5.07 3.62 10.14 8.07 12.06 2.48 1.06 4.86 1.03 6.8-.1a7.39 7.39 0 0 0 2.24-2.32c2.35-4.13 1.02-10.45-3.07-14.62-.81-.83-1.07-.99-1.47-.85-.35.13-.53.31-.59.62-.06.36.04.52.84 1.33 1.92 1.93 3.2 4.4 3.66 7.03a9.7 9.7 0 0 1-.37 4.8 5.1 5.1 0 0 1-2.38 2.74 4.5 4.5 0 0 1-2.23.49c-3.27-.02-6.83-2.76-8.68-6.67-.76-1.63-1.1-2.9-1.18-4.51a8.49 8.49 0 0 1 .4-3.24c.62-1.9 1.9-3.11 3.63-3.47.37-.07.74-.18.84-.24.48-.32.38-1.15-.17-1.38a1.42 1.42 0 0 0-.35-.11l-.6.11Z" fill="#000"/>
  <path d="M18.9 5.08c-.72.73.35 1.8 1.13 1.13.2-.17.23-.27.23-.59 0-.32-.04-.42-.23-.58a.83.83 0 0 0-1.13.04Z" fill="#000"/>
</svg>
