<svg fill="none" xmlns="http://www.w3.org/2000/svg" viewBox="0 0 34 42">
  <path d="M15.07.1a19.2 19.2 0 0 0-1.69 2.31C5.61 13.92 2.26 18.94 1.92 19.56a15.3 15.3 0 1 0 27.65 12.97c.86-2.09 1.2-4.02 1.13-6.4l-.04-1.47.47-.52a7.27 7.27 0 0 0 1.28-7.96c-.32-.68-5.88-8.97-6.18-9.2-.23-.2-.48-.21-.8-.07-.14.06-.6.68-1.37 1.81a29.2 29.2 0 0 1-1.17 1.68c0-.01-1.53-2.25-3.35-4.99A143.29 143.29 0 0 0 15.95.22c-.25-.24-.55-.28-.88-.11Zm3.63 7.02c1.74 2.6 3.17 4.74 3.17 4.8 0 .03-.54.85-1.19 1.8-1.56 2.32-1.87 2.97-2.1 4.37-.14.83-.05 2.28.17 3.06a7.3 7.3 0 0 0 10.2 4.65c.13-.06.13.02.13.84a13.66 13.66 0 0 1-17.94 13.01c-.35-.11-1.15-.46-1.78-.78a13.6 13.6 0 0 1-6.8-16.67c.47-1.35 1.11-2.46 3.32-5.72l5.81-8.62c2.05-3.05 3.76-5.52 3.79-5.5l3.22 4.76Zm9.55 5.64c1.3 1.93 2.45 3.69 2.56 3.9a5.63 5.63 0 0 1-2.4 7.54 5.62 5.62 0 0 1-5.23.02 6.38 6.38 0 0 1-2.4-2.4 5.68 5.68 0 0 1-.13-4.94c.33-.67 5.09-7.78 5.17-7.7l2.43 3.58Z" fill="#000"/>
  <path d="M5.98 20.06a9.06 9.06 0 0 0-1.34 2.12 11.29 11.29 0 0 0 6.12 15.26c.4.16.85.3.97.3.74 0 1.13-.9.6-1.38-.1-.09-.46-.26-.8-.39a9.6 9.6 0 0 1-4.64-14.44c.46-.69.49-1 .14-1.36-.28-.27-.75-.33-1.05-.11ZM13.99 36.84a.8.8 0 0 0-.25 1.31.79.79 0 0 0 1.32-.33.77.77 0 0 0-.45-.96c-.32-.13-.34-.13-.62-.02ZM21.93 16.86c-.45.24-.8 1.77-.64 2.79a4.33 4.33 0 0 0 1.39 2.61c.54.51.83.66 1.16.59.34-.08.65-.49.65-.84 0-.26-.07-.36-.57-.84a4.4 4.4 0 0 1-.73-.88 3.2 3.2 0 0 1-.1-2.35c.32-.83-.4-1.5-1.16-1.08ZM25.34 22.13c-.49.4-.46 1.05.05 1.36a.9.9 0 0 0 .41.14c.4 0 .82-.42.82-.83 0-.63-.8-1.05-1.28-.67Z" fill="#000"/>
</svg>
