<svg fill="none" xmlns="http://www.w3.org/2000/svg" viewBox="0 0 37 42">
  <path d="M17.5.5A70.54 70.54 0 0 1 2.7 6.86c-1.3.38-1.55.47-1.75.7l-.23.25.04 6c.02 5.07.05 6.15.17 6.94a25.76 25.76 0 0 0 4.53 11.66c2.9 4.13 7.7 7.93 11.7 9.28 1.41.47 2.44.32 4.5-.66a27.36 27.36 0 0 0 10.11-8.62 25.76 25.76 0 0 0 4.53-11.66c.12-.8.15-1.87.17-6.94l.04-6-.23-.25c-.2-.23-.45-.32-1.75-.7-5-1.48-9.64-3.46-14.89-6.4A4.14 4.14 0 0 0 18.62 0c-.12 0-.62.23-1.11.5Zm2.62 2.24a71.5 71.5 0 0 0 13.82 5.8l.84.25v4.32c0 2.38-.05 4.93-.09 5.68a23.88 23.88 0 0 1-7.43 16.15 22.81 22.81 0 0 1-7.43 4.96c-1.04.39-1.39.39-2.43 0-2.4-.9-5.03-2.65-7.43-4.96a23.88 23.88 0 0 1-7.43-16.15c-.04-.75-.08-3.3-.08-5.68V8.79l.84-.26c1.53-.46 4.26-1.4 5.6-1.93a74.72 74.72 0 0 0 8.57-4.05 9.14 9.14 0 0 1 1.13-.58c.06 0 .75.34 1.52.77Z" fill="#000"/>
  <path d="M25.8 12.82c-.19.07-.48.2-.66.32-.18.12-2.36 2.25-4.84 4.73l-4.51 4.52-1.77-1.76c-2.1-2.1-2.29-2.21-3.48-2.21-.62 0-.8.03-1.15.2a2.87 2.87 0 0 0-1.41 3.82c.2.42.6.86 3.15 3.42 3.42 3.4 3.4 3.38 4.61 3.38 1.4 0 .94.38 7.53-6.21 6.56-6.57 6.21-6.15 6.21-7.49 0-.63-.03-.8-.2-1.18a3.07 3.07 0 0 0-1.4-1.4 3.59 3.59 0 0 0-2.09-.14Zm1.24 1.7c.54.21.83.77.68 1.31-.06.23-1.3 1.51-5.76 5.97-5.15 5.14-5.72 5.67-6 5.73a.9.9 0 0 1-.67-.12c-.2-.11-1.44-1.3-3-2.87-2.82-2.82-2.94-2.97-2.8-3.53.08-.38.41-.74.77-.83.62-.17.75-.07 2.98 2.14a27.85 27.85 0 0 0 2.28 2.12c.13.05.33.06.45.04.15-.03 1.85-1.68 5.1-4.92 2.69-2.68 5-4.93 5.13-5 .29-.15.52-.16.84-.03Z" fill="#000"/>
</svg>
