<svg xmlns="http://www.w3.org/2000/svg" width="80" height="80" fill="none"><g clip-path="url(#a)"><mask id="b" width="77" height="76" x="2" y="2" maskUnits="userSpaceOnUse" style="mask-type:luminance"><path fill="#fff" fill-rule="evenodd" d="m72.215 51.9-5.48 1.804a5.753 5.753 0 0 0-3.609-3.596c-.494-3.216-3.385-5.532-6.672-5.346-2.128-3.375-5.972-5.308-9.985-5.022a5.077 5.077 0 0 0-3.383-3.554 24.373 24.373 0 0 1 6.197-10.141c.154.174.298.357.46.521a13.83 13.83 0 0 0 9.742 4.076c.258 0 .518-.007.776-.023a11.228 11.228 0 0 0 8.38-4.332c5.55-7.213 9.635-21.709 9.805-22.318.101-.351.042-.729-.161-1.033a1.272 1.272 0 0 0-.897-.555C76.636 2.282 58.876.08 50.004 7.488a11.45 11.45 0 0 0-1.694 1.754 29.174 29.174 0 0 0-10.747-.861c-.38.038-.723.243-.933.559-.21.315-.265.707-.15 1.067.085.28 2.117 6.724 4.897 9.953a6.378 6.378 0 0 0 4.893 2.12c.183 0 .368-.014.553-.028.264.653.577 1.285.935 1.892A26.798 26.798 0 0 0 40.49 36.05a5.15 5.15 0 0 0-3.027 1.896c-3.509-1.533-7.616-.67-10.191 2.138a7.5 7.5 0 0 0-2.327-.372c-3.729.006-6.91 2.666-7.534 6.298h-2.36a5.754 5.754 0 0 0-4.764-2.525h-2.55C4.568 43.488 2 46.027 2 49.158v22.673c.003 3.13 2.57 5.666 5.738 5.669h2.55a5.723 5.723 0 0 0 3.562-1.255h33.155c1.87 0 3.705-.508 5.303-1.47l23.898-14.367a4.685 4.685 0 0 0 1.85-6.013c-1.022-2.177-3.537-3.248-5.841-2.487v-.009ZM48.348 16.27a9.386 9.386 0 0 1 3.294-6.857c4.88-4.072 13.174-4.874 18.956-4.874 2.068 0 3.812.104 4.968.196-1.179 3.85-4.676 14.479-8.95 20.029a8.71 8.71 0 0 1-6.507 3.348 11.176 11.176 0 0 1-8.535-3.295c-.162-.165-.308-.346-.459-.52a43.47 43.47 0 0 1 8.819-6.12c.632-.305.894-1.06.584-1.685a1.282 1.282 0 0 0-1.705-.577 44.618 44.618 0 0 0-9.153 6.228 11.584 11.584 0 0 1-1.312-5.873Zm-2.541-.124a13.733 13.733 0 0 0 .282 3.404 3.767 3.767 0 0 1-2.758-1.226 27.468 27.468 0 0 1-3.885-7.552 25.318 25.318 0 0 1 7.51.697 12.496 12.496 0 0 0-1.155 4.676l.006.001ZM13.474 71.831c-.001 1.739-1.427 3.147-3.186 3.15h-2.55c-1.76-.002-3.184-1.41-3.187-3.148V49.157c.003-1.738 1.428-3.146 3.187-3.148h2.55c1.759.002 3.184 1.41 3.186 3.148v22.673ZM24.95 42.23a5.088 5.088 0 0 1 2.176.503 1.28 1.28 0 0 0 1.58-.4c1.966-2.705 5.727-3.424 8.571-1.638.323.204.722.253 1.085.134.364-.12.654-.395.789-.749a2.518 2.518 0 0 1 2.271-1.616c.034 0 .07.01.103.01.034 0 .061-.015.092-.016 1.346.043 2.424 1.116 2.458 2.445 0 .035-.018.155-.02.19-.024.39.138.77.438 1.027.3.256.704.359 1.092.279a8.472 8.472 0 0 1 1.675-.168c3.113-.004 5.964 1.722 7.373 4.464.262.507.836.776 1.4.657a3.878 3.878 0 0 1 3.17.753 3.782 3.782 0 0 1 1.444 2.888v.118a1.26 1.26 0 0 0 1.095 1.247 3.185 3.185 0 0 1 2.567 2.147l-15.693 5.161c-.39.129-.799.194-1.21.194h-.733a5.736 5.736 0 0 0-.476-4.962l-.113-.185a7.704 7.704 0 0 0-6.56-3.67h-6.668a10.48 10.48 0 0 1-6.473-2.243 13.033 13.033 0 0 0-6.389-2.664c.533-2.282 2.586-3.9 4.956-3.906Zm50.957 14.56a2.168 2.168 0 0 1-1.024 1.457l-23.9 14.368a7.718 7.718 0 0 1-3.977 1.102H15.671a5.54 5.54 0 0 0 .353-1.89V49.158a5.467 5.467 0 0 0-.065-.63h2.358a10.48 10.48 0 0 1 6.474 2.243 13.056 13.056 0 0 0 8.066 2.79h6.668a5.138 5.138 0 0 1 4.377 2.448l.113.185a3.26 3.26 0 0 1-.19 3.665h-7.752a12.818 12.818 0 0 0-7.07 2.116l-.935.615c-.379.249-.594.679-.564 1.127.029.448.298.847.706 1.046.407.2.891.168 1.27-.08l.934-.616a10.254 10.254 0 0 1 5.658-1.692h11.333c.685 0 1.366-.11 2.016-.324l16.266-5.356c.022 0 .038.011.06.011.286-.005.561-.107.78-.289l6.495-2.138c.909-.3 1.909.01 2.48.77.382.496.53 1.13.404 1.74Z" clip-rule="evenodd"/></mask><g mask="url(#b)"><mask id="c" width="821" height="25169" x="-368" y="-5096" maskUnits="userSpaceOnUse" style="mask-type:alpha"><path fill="#000" d="M-367.387 20072.1h819.643V-5095.33h-819.643V20072.1Z"/></mask><g mask="url(#c)"><path fill="#000" d="M-8.93-8.787h98.358v97.072H-8.93V-8.787Z"/></g></g></g><path fill="#000" fill-rule="evenodd" d="m71.297 51.9-5.408 1.804a5.716 5.716 0 0 0-3.562-3.596 6.298 6.298 0 0 0-6.585-5.346 10.698 10.698 0 0 0-9.855-5.022 5.048 5.048 0 0 0-3.338-3.554 24.432 24.432 0 0 1 6.115-10.141c.152.174.294.357.455.521a13.562 13.562 0 0 0 9.614 4.076c.255 0 .512-.007.767-.023a11.037 11.037 0 0 0 8.27-4.332c5.477-7.213 9.509-21.709 9.677-22.318a1.256 1.256 0 0 0-1.045-1.588c-.741-.099-18.27-2.301-27.025 5.107a11.387 11.387 0 0 0-1.672 1.754 28.432 28.432 0 0 0-10.607-.861 1.254 1.254 0 0 0-1.07 1.626c.084.28 2.091 6.724 4.835 9.953a6.257 6.257 0 0 0 4.828 2.12c.181 0 .364-.014.546-.028.26.653.569 1.285.923 1.892a26.867 26.867 0 0 0-7.172 12.106A5.074 5.074 0 0 0 37 37.946a8.772 8.772 0 0 0-10.058 2.138 7.31 7.31 0 0 0-2.296-.372 7.558 7.558 0 0 0-7.435 6.298h-2.329a5.658 5.658 0 0 0-4.703-2.525H7.663A5.672 5.672 0 0 0 2 49.158v22.673A5.671 5.671 0 0 0 7.663 77.5h2.516a5.602 5.602 0 0 0 3.516-1.255h32.722c1.846 0 3.657-.508 5.234-1.47l23.585-14.367a4.718 4.718 0 0 0 1.826-6.013 4.708 4.708 0 0 0-5.765-2.487v-.009ZM47.742 16.27a9.435 9.435 0 0 1 3.251-6.857C55.81 5.341 63.995 4.54 69.701 4.54c2.042 0 3.762.103 4.904.196-1.164 3.85-4.615 14.479-8.833 20.029a8.561 8.561 0 0 1-6.423 3.348 10.951 10.951 0 0 1-8.423-3.295c-.16-.165-.304-.346-.453-.52a42.893 42.893 0 0 1 8.704-6.12 1.26 1.26 0 0 0-1.107-2.262 44.013 44.013 0 0 0-9.033 6.228 11.711 11.711 0 0 1-1.295-5.873Zm-2.508-.124a13.904 13.904 0 0 0 .279 3.404 3.696 3.696 0 0 1-2.722-1.226 27.613 27.613 0 0 1-3.834-7.552c2.491-.144 4.99.091 7.411.697a12.63 12.63 0 0 0-1.14 4.676l.006.001Zm-31.91 55.685a3.15 3.15 0 0 1-3.145 3.15H7.663a3.15 3.15 0 0 1-3.145-3.148V49.157a3.15 3.15 0 0 1 3.145-3.148h2.516a3.15 3.15 0 0 1 3.145 3.148v22.673ZM24.65 42.23a4.965 4.965 0 0 1 2.147.503 1.253 1.253 0 0 0 1.56-.4 6.266 6.266 0 0 1 8.459-1.638 1.253 1.253 0 0 0 1.849-.615 2.488 2.488 0 0 1 2.242-1.617c.033 0 .068.01.102.01.033 0 .06-.014.09-.015a2.51 2.51 0 0 1 2.426 2.445c0 .035-.018.155-.02.19a1.256 1.256 0 0 0 1.51 1.305 8.256 8.256 0 0 1 1.654-.167 8.148 8.148 0 0 1 7.276 4.464c.258.507.825.776 1.381.657a3.79 3.79 0 0 1 3.129.753 3.798 3.798 0 0 1 1.425 2.888v.118c-.002.628.46 1.16 1.081 1.247a3.154 3.154 0 0 1 2.533 2.147l-15.488 5.161a3.772 3.772 0 0 1-1.194.194h-.723a5.803 5.803 0 0 0-.47-4.962l-.111-.185a7.583 7.583 0 0 0-6.474-3.67h-6.581a10.257 10.257 0 0 1-6.389-2.243c-1.82-1.446-4-2.367-6.305-2.664a5.036 5.036 0 0 1 4.89-3.906ZM74.94 56.79a2.167 2.167 0 0 1-1.011 1.457L50.342 72.615a7.542 7.542 0 0 1-3.925 1.102H15.493a5.603 5.603 0 0 0 .348-1.89V49.158a5.53 5.53 0 0 0-.064-.63h2.327c2.322.003 4.574.793 6.389 2.243a12.779 12.779 0 0 0 7.96 2.79h6.581a5.057 5.057 0 0 1 4.32 2.448l.112.185a3.295 3.295 0 0 1-.187 3.664h-7.651a12.532 12.532 0 0 0-6.979 2.117l-.922.615a1.258 1.258 0 0 0 1.393 2.092l.923-.615a10.027 10.027 0 0 1 5.583-1.692h11.185c.677 0 1.348-.11 1.99-.324l16.054-5.356c.02 0 .037.011.058.011.283-.005.555-.107.77-.289l6.41-2.138c.897-.3 1.885.01 2.449.77a2.17 2.17 0 0 1 .398 1.74Z" clip-rule="evenodd"/><path fill="#000" d="M71.297 51.9h.25v-.348l-.33.11.08.237Zm-5.408 1.804-.237.08.079.236.237-.079-.08-.237Zm-3.562-3.596-.247.038.023.15.143.048.081-.236Zm-6.585-5.346-.212.132.078.126.148-.009-.014-.25Zm-9.855-5.022-.242.062.052.202.209-.015-.019-.25Zm-3.338-3.554-.24-.074-.072.236.235.075.077-.237Zm6.115-10.141.189-.165-.175-.201-.19.188.176.178Zm.455.521-.18.175h.001l.179-.175Zm9.614 4.076-.001.25h.001v-.25Zm.767-.023-.012-.25h-.005l.017.25Zm8.27-4.332.199.152-.2-.152ZM77.447 3.97l-.24-.068v.001l.24.067Zm-.16-1.034.21-.137-.21.137Zm-.885-.554-.033.248.033-.248ZM49.377 7.488l-.162-.19.162.19Zm-1.672 1.754-.067.24.162.045.103-.133-.198-.152ZM37.098 8.38l.025.249h.001l-.026-.25Zm-.92.559-.21-.137.21.137Zm-.15 1.067.24-.071v-.004l-.24.075Zm4.835 9.953-.19.162.002.003.188-.165Zm4.828 2.12v-.25h-.005l.005.25Zm.546-.028.232-.092-.068-.17-.183.013.02.25Zm.923 1.892.174.18.14-.137-.098-.169-.216.126ZM39.988 36.05l.052.245.148-.032.04-.146-.24-.067ZM37 37.946l-.101.229.18.08.12-.158-.199-.151Zm-10.058 2.138-.078.238.154.051.11-.12-.186-.169Zm-2.296-.372v-.25.25Zm-7.435 6.298v.25h.21l.036-.208-.246-.042Zm-2.329 0-.208.139.074.111h.134v-.25Zm-4.703-2.525v-.25.25Zm-2.516 0v-.25.25ZM2 49.158h-.25H2Zm0 22.673h-.25H2ZM7.663 77.5v.25-.25Zm2.516 0v.25h.001v-.25Zm3.516-1.255v-.25h-.089l-.069.056.158.194Zm32.722 0v-.25.25Zm5.234-1.47-.13-.213.13.214Zm23.585-14.367-.13-.213.13.213Zm-3.94-8.5-.25-.001v.348l.33-.11-.08-.237ZM47.743 16.27l-.25-.007-.007.257h.257v-.25Zm3.251-6.857-.161-.19-.003.001.164.189Zm23.612-4.678.239.072.09-.297-.31-.025-.02.25Zm-8.833 20.029.198.152-.198-.152Zm-6.423 3.348-.01-.25h-.003l.013.25Zm-8.423-3.295-.179.174.18-.174Zm-.453-.52-.168-.185-.18.163.158.184.19-.162Zm8.704-6.12-.11-.224-.008.003.118.221Zm-1.107-2.262-.11-.225-.005.003.115.222Zm-9.033 6.228-.222.115.147.286.241-.215-.166-.186Zm-1.295-5.873.25.011.011-.26h-.26v.25Zm-2.508-.124.25.01.008-.203-.197-.05-.061.243Zm.279 3.404-.002.25.31.002-.064-.303-.244.05Zm-2.722-1.226-.203.146.008.01.01.01.185-.166Zm-3.834-7.552-.015-.25-.324.019.1.308.238-.077Zm7.411.697.227.105.126-.274-.292-.073-.06.242Zm-1.14 4.676-.25-.012-.01.205.2.05.06-.243ZM13.324 71.83h.25-.25Zm-3.145 3.15v.25-.25Zm-2.516 0v.25-.25Zm-3.145-3.148h-.25.25Zm0-22.675h-.25.25Zm3.145-3.148v-.25.25Zm2.516 0v-.25.25Zm3.145 3.148h.25-.25ZM24.65 42.23l.001-.25-.155-.001-.07.139.224.112Zm2.147.503-.11.225h.002l.108-.225Zm1.56-.4-.203-.146.204.146Zm8.459-1.638.135-.21h-.001l-.134.21Zm1.07.134.08.237-.08-.237Zm.779-.749.234.088-.234-.088Zm2.242-1.617v-.25h-.009l.009.25Zm.192-.005.008-.25h-.02l.012.25Zm2.426 2.445h.25v-.006l-.25.006Zm-.02.19.25.015v-.005l-.25-.01Zm1.51 1.305-.05-.244h-.002l.052.244Zm1.654-.167v.25-.25Zm7.276 4.464-.223.113.223-.113Zm1.381.657-.05-.245h-.002l.052.245Zm3.129.753-.156.195.156-.195Zm1.425 2.888h.25v-.006l-.25.005Zm0 .118h.25-.25Zm1.081 1.247.037-.247h-.002l-.035.247Zm2.533 2.147.08.237.235-.078-.077-.236-.238.077Zm-15.488 5.161-.079-.237.08.237Zm-1.917.194-.235-.086-.122.336h.357v-.25Zm-.47-4.962.215-.128-.215.128Zm-.111-.185.214-.129-.214.129Zm-6.474-3.67v-.25.25Zm-6.581 0v.25-.25ZM26.063 48.8l.156-.196-.156.196Zm-6.305-2.664-.244-.057-.062.27.274.034.032-.248Zm4.89-3.906.002.25h.154l.068-.138-.223-.112ZM74.94 56.79l.246.046.026-.14-.107-.094-.165.188Zm-1.011 1.457-.13-.214.13.214ZM50.342 72.615l-.13-.213.13.213Zm-34.85 1.102-.234-.087-.125.337h.36v-.25Zm.349-1.89.25.002v-.002h-.25Zm0-22.669h.25v-.01l-.25.01Zm-.064-.63v-.25h-.293l.046.29.247-.04Zm2.327 0v-.25.25Zm6.389 2.243-.156.195.156-.195Zm7.96 2.79v.25-.25Zm6.581 0 .001-.25v.25Zm4.32 2.448.215-.13-.215.13Zm.112.185.214-.128-.214.128Zm-.187 3.664v.25h.125l.075-.1-.2-.15Zm-7.651 0v.25-.25Zm-6.979 2.117.139.208-.139-.208Zm-.922.615-.139-.208.139.208Zm-.557 1.127.25-.016-.25.016Zm.697 1.046.11-.224-.11.224Zm1.253-.08-.138-.209.138.208Zm.923-.616.138.208-.138-.208Zm5.583-1.692v.25-.25Zm11.185 0v.25-.25Zm1.99-.324-.079-.237.08.237Zm16.054-5.356v-.25h-.04l-.04.013.08.237Zm.058.011v.25h.005l-.005-.25Zm.77-.289-.078-.237-.046.015-.036.03.16.192Zm6.41-2.138.08.237-.08-.237Zm2.449.77-.2.149v.002l.2-.151Zm.398 1.74-.245-.049-.028.142.109.096.164-.188Zm-3.722-5.127-5.408 1.805.158.474 5.408-1.805-.159-.474Zm-5.092 1.963a5.966 5.966 0 0 0-3.718-3.753l-.162.472a5.466 5.466 0 0 1 3.406 3.44l.474-.159Zm-3.552-3.554a6.549 6.549 0 0 0-6.846-5.56l.028.5a6.048 6.048 0 0 1 6.324 5.135l.494-.075Zm-6.62-5.442a10.948 10.948 0 0 0-10.085-5.139l.037.5a10.448 10.448 0 0 1 9.623 4.904l.425-.265Zm-9.824-4.951a5.298 5.298 0 0 0-3.504-3.73l-.154.475a4.798 4.798 0 0 1 3.173 3.379l.485-.124Zm-3.342-3.419a24.183 24.183 0 0 1 6.053-10.037l-.353-.355a24.683 24.683 0 0 0-6.178 10.245l.478.147Zm5.688-10.05c.139.16.298.361.464.532l.358-.35c-.155-.158-.28-.321-.445-.51l-.377.328Zm.464.532a13.812 13.812 0 0 0 9.792 4.151l.003-.5a13.312 13.312 0 0 1-9.438-4l-.357.35Zm9.793 4.151c.26 0 .522-.007.783-.024l-.032-.499c-.25.016-.5.023-.75.023v.5Zm.778-.024a11.287 11.287 0 0 0 8.458-4.429l-.398-.303a10.787 10.787 0 0 1-8.083 4.233l.023.5Zm8.458-4.43c2.762-3.637 5.15-9.094 6.865-13.699a114.543 114.543 0 0 0 2.854-8.704l-.482-.133c-.083.302-1.13 4.07-2.84 8.662-1.713 4.6-4.08 9.997-6.795 13.572l.398.303Zm9.719-22.401c.119-.421.05-.873-.191-1.239l-.418.275c.16.244.207.546.128.828l.48.136Zm-.191-1.239a1.504 1.504 0 0 0-1.063-.665l-.064.496c.29.038.548.2.709.444l.418-.275Zm-1.062-.664c-.379-.051-4.964-.629-10.556-.264-5.582.364-12.222 1.669-16.664 5.427l.323.382c4.314-3.65 10.816-4.948 16.373-5.31 5.546-.362 10.096.212 10.458.26l.066-.495Zm-27.22 5.163a11.639 11.639 0 0 0-1.709 1.792l.397.305a11.14 11.14 0 0 1 1.635-1.715l-.323-.382Zm-1.444 1.704a28.683 28.683 0 0 0-10.7-.869l.053.497c3.527-.38 7.094-.09 10.514.854L47.771 9Zm-10.699-.869c-.45.046-.855.292-1.104.67l.418.275c.166-.252.437-.417.737-.447l-.05-.498Zm-1.104.67a1.506 1.506 0 0 0-.178 1.28l.477-.15a1.006 1.006 0 0 1 .12-.855l-.419-.274Zm-.179 1.277c.044.146.57 1.835 1.429 3.895.856 2.053 2.056 4.502 3.454 6.148l.381-.324c-1.345-1.583-2.52-3.972-3.374-6.017a45.724 45.724 0 0 1-1.41-3.845l-.48.143Zm4.886 10.046a6.506 6.506 0 0 0 5.021 2.205l-.01-.5a6.006 6.006 0 0 1-4.636-2.035l-.375.33Zm5.016 2.205c.192 0 .384-.014.565-.028l-.038-.499a6.958 6.958 0 0 1-.527.027v.5Zm.314-.185c.265.664.579 1.307.939 1.925l.432-.252a13.98 13.98 0 0 1-.907-1.858l-.464.185Zm.98 1.62a27.118 27.118 0 0 0-7.238 12.219l.482.133a26.617 26.617 0 0 1 7.105-11.994l-.349-.358Zm-7.05 12.04a5.324 5.324 0 0 0-3.134 1.99l.398.302a4.825 4.825 0 0 1 2.84-1.802l-.103-.49Zm-2.834 1.912a9.022 9.022 0 0 0-10.344 2.2l.37.335a8.522 8.522 0 0 1 9.772-2.078l.202-.457Zm-10.08 2.13a7.561 7.561 0 0 0-2.375-.385v.5c.753 0 1.502.122 2.218.36l.157-.475Zm-2.375-.385a7.808 7.808 0 0 0-7.682 6.506l.493.084a7.307 7.307 0 0 1 7.19-6.09l-.001-.5ZM17.21 45.76h-2.329v.5h2.329v-.5Zm-2.12.111a5.908 5.908 0 0 0-4.911-2.636v.5a5.408 5.408 0 0 1 4.494 2.413l.416-.277Zm-4.912-2.636H7.663v.5h2.516v-.5Zm-2.516 0a5.921 5.921 0 0 0-5.913 5.923h.5a5.421 5.421 0 0 1 5.413-5.423v-.5ZM1.75 49.158v22.673h.5V49.158h-.5Zm0 22.673a5.921 5.921 0 0 0 5.913 5.919v-.5a5.421 5.421 0 0 1-5.413-5.42l-.5.001Zm5.913 5.919h2.516v-.5H7.663v.5Zm2.517 0a5.852 5.852 0 0 0 3.673-1.311l-.316-.388a5.352 5.352 0 0 1-3.358 1.199l.001.5Zm3.515-1.255h32.722v-.5H13.695v.5Zm32.722 0c1.892 0 3.748-.52 5.364-1.506l-.26-.427a9.806 9.806 0 0 1-5.104 1.433v.5Zm5.364-1.506 23.585-14.367-.26-.427L51.52 74.562l.26.427Zm23.585-14.367a4.967 4.967 0 0 0 1.923-6.332l-.454.21a4.467 4.467 0 0 1-1.73 5.695l.26.427Zm1.923-6.332a4.958 4.958 0 0 0-6.072-2.62l.159.475a4.458 4.458 0 0 1 5.46 2.355l.453-.21Zm-5.742-2.382V51.9l-.5-.002v.009l.5.001Zm-23.555-35.63a9.185 9.185 0 0 1 3.165-6.676l-.328-.378a9.685 9.685 0 0 0-3.337 7.04l.5.014Zm3.162-6.674c2.364-1.998 5.57-3.205 8.911-3.91 3.34-.705 6.793-.905 9.636-.905v-.5c-2.863 0-6.354.201-9.739.916-3.381.713-6.677 1.944-9.13 4.017l.322.382Zm18.547-4.815c2.033 0 3.747.103 4.884.195l.04-.499A61.906 61.906 0 0 0 69.7 4.29v.5Zm4.664-.127c-.58 1.922-1.732 5.534-3.263 9.357-1.534 3.828-3.442 7.846-5.53 10.594l.399.302c2.13-2.803 4.057-6.873 5.595-10.71 1.539-3.841 2.695-7.469 3.278-9.398l-.479-.145Zm-8.792 19.95a8.31 8.31 0 0 1-6.234 3.25l.021.5a8.81 8.81 0 0 0 6.61-3.446l-.397-.304Zm-6.237 3.25a10.701 10.701 0 0 1-8.23-3.22l-.359.35a11.202 11.202 0 0 0 8.616 3.37l-.027-.5Zm-8.23-3.22c-.154-.156-.285-.324-.443-.508l-.38.325c.141.165.296.36.464.532l.358-.348Zm-.465-.16a42.648 42.648 0 0 1 8.653-6.084l-.235-.442a43.145 43.145 0 0 0-8.754 6.156l.336.37Zm8.646-6.08a1.51 1.51 0 0 0 .691-2.02l-.45.22a1.01 1.01 0 0 1-.461 1.35l.22.45Zm.691-2.02a1.508 1.508 0 0 0-2.018-.692l.22.45a1.008 1.008 0 0 1 1.349.462l.45-.22Zm-2.023-.69a44.262 44.262 0 0 0-9.085 6.264l.333.373a43.76 43.76 0 0 1 8.982-6.192l-.23-.444Zm-8.696 6.336a11.46 11.46 0 0 1-1.267-5.747l-.5-.021a11.96 11.96 0 0 0 1.323 5.998l.444-.23Zm-1.517-6.008v.5-.5Zm-2.758.116a14.146 14.146 0 0 0 .284 3.465l.49-.102a13.652 13.652 0 0 1-.274-3.342l-.5-.021Zm.53 3.164a3.447 3.447 0 0 1-2.537-1.143l-.372.334a3.947 3.947 0 0 0 2.906 1.309l.003-.5Zm-2.52-1.122a27.364 27.364 0 0 1-3.8-7.484l-.475.155a27.865 27.865 0 0 0 3.87 7.62l.405-.291Zm-4.023-7.157c2.466-.142 4.94.09 7.337.69l.12-.484a24.924 24.924 0 0 0-7.486-.705l.029.5Zm7.17.344a12.88 12.88 0 0 0-1.162 4.768l.5.024a12.379 12.379 0 0 1 1.116-4.583l-.454-.21Zm-.973 5.022.005.002.122-.485-.006-.002-.121.485ZM13.074 71.831a2.9 2.9 0 0 1-2.895 2.9v.5a3.4 3.4 0 0 0 3.395-3.4h-.5Zm-2.895 2.9H7.663v.5h2.516v-.5Zm-2.516 0a2.9 2.9 0 0 1-2.895-2.899h-.5a3.4 3.4 0 0 0 3.395 3.399v-.5Zm-2.895-2.898V49.157h-.5v22.674h.5Zm0-22.674a2.9 2.9 0 0 1 2.895-2.899v-.5a3.4 3.4 0 0 0-3.395 3.398h.5Zm2.895-2.899h2.516v-.5H7.663v.5Zm2.516 0a2.9 2.9 0 0 1 2.895 2.899l.5-.001a3.4 3.4 0 0 0-3.394-3.398v.5Zm2.895 2.898v22.673h.5V49.158h-.5Zm11.573-6.678a4.715 4.715 0 0 1 2.04.478l.219-.45a5.217 5.217 0 0 0-2.256-.528l-.003.5Zm2.041.479a1.503 1.503 0 0 0 1.872-.48l-.406-.292c-.284.396-.81.531-1.25.32l-.216.452Zm1.872-.48a6.016 6.016 0 0 1 8.12-1.573l.269-.422a6.516 6.516 0 0 0-8.795 1.703l.406.292Zm8.12-1.573c.382.244.854.303 1.285.16l-.158-.474a1.003 1.003 0 0 1-.857-.107l-.27.42Zm1.285.16c.43-.143.773-.473.933-.898l-.468-.176a1.005 1.005 0 0 1-.623.6l.158.474Zm.933-.898a2.238 2.238 0 0 1 2.017-1.455l-.018-.5a2.737 2.737 0 0 0-2.467 1.78l.468.175Zm2.008-1.455.016.003c.013.002.048.007.086.007v-.5l-.016-.002c-.014-.002-.048-.008-.086-.008v.5Zm.102.01c.05 0 .091-.01.107-.014a.226.226 0 0 1 .009-.003h.002l-.016.002-.023-.5a.394.394 0 0 0-.094.016c-.014.003-.002 0 .015 0v.5Zm.082-.015a2.26 2.26 0 0 1 2.184 2.202l.5-.013a2.76 2.76 0 0 0-2.668-2.689l-.016.5Zm2.184 2.195-.001.014-.006.05a4.664 4.664 0 0 0-.012.116l.5.02.002-.021.006-.054.007-.06a.68.68 0 0 0 .004-.065h-.5Zm-.019.175c-.029.468.163.923.518 1.23l.327-.377a1.006 1.006 0 0 1-.346-.823l-.499-.03Zm.518 1.23c.355.308.833.432 1.292.335l-.103-.49a1.003 1.003 0 0 1-.862-.222l-.327.378Zm1.29.335a8.01 8.01 0 0 1 1.605-.162v-.5c-.573 0-1.143.058-1.704.173l.1.49Zm1.605-.162a7.898 7.898 0 0 1 7.053 4.327l.446-.226a8.398 8.398 0 0 0-7.5-4.6l.001.5Zm7.053 4.327c.31.608.99.932 1.657.788l-.105-.489a1.004 1.004 0 0 1-1.106-.526l-.446.227Zm1.654.789a3.54 3.54 0 0 1 2.923.703l.312-.39a4.04 4.04 0 0 0-3.335-.803l.1.49Zm2.923.703a3.548 3.548 0 0 1 1.33 2.698l.5-.01a4.049 4.049 0 0 0-1.518-3.079l-.312.39Zm1.33 2.693V51.112h.5V50.992h-.5Zm0 .117a1.505 1.505 0 0 0 1.298 1.496l.069-.495a1.005 1.005 0 0 1-.866-1h-.5Zm1.295 1.495a2.904 2.904 0 0 1 2.333 1.977l.475-.154a3.404 3.404 0 0 0-2.734-2.317l-.074.494Zm2.491 1.663-15.488 5.16.158.475 15.488-5.16-.158-.475Zm-15.488 5.16c-.36.12-.736.182-1.115.182v.5c.433 0 .863-.07 1.274-.207l-.159-.474Zm-1.115.182h-.723v.5h.723v-.5Zm-.488.336a6.053 6.053 0 0 0-.49-5.176l-.43.256a5.553 5.553 0 0 1 .45 4.748l.47.172Zm-.49-5.176-.112-.186-.428.258.111.185.429-.258Zm-.112-.186a7.833 7.833 0 0 0-6.687-3.791l-.002.5a7.333 7.333 0 0 1 6.26 3.549l.43-.258Zm-6.688-3.791h-6.581v.5h6.581v-.5Zm-6.58 0a10.008 10.008 0 0 1-6.234-2.189l-.312.391a10.507 10.507 0 0 0 6.545 2.298v-.5Zm-6.235-2.19a13.026 13.026 0 0 0-6.428-2.715l-.064.495a12.525 12.525 0 0 1 6.182 2.613l.31-.392Zm-6.217-2.411a4.786 4.786 0 0 1 4.648-3.712l-.001-.5a5.286 5.286 0 0 0-5.134 4.1l.487.112Zm4.871-3.85-.447-.224.447.224Zm49.823 14.402a1.918 1.918 0 0 1-.895 1.29l.258.428a2.418 2.418 0 0 0 1.128-1.626l-.491-.092Zm-.896 1.29L50.212 72.4l.26.428L74.06 58.46l-.26-.427ZM50.212 72.4a7.292 7.292 0 0 1-3.795 1.066v.5c1.43 0 2.834-.394 4.055-1.138l-.26-.427Zm-3.795 1.066H15.493v.5h30.924v-.5Zm-30.69.337c.234-.633.357-1.3.364-1.975l-.5-.005a5.353 5.353 0 0 1-.333 1.806l.469.174Zm.364-1.977V49.158h-.5v22.669h.5Zm0-22.68c-.01-.22-.032-.44-.067-.659l-.494.08c.032.199.052.4.061.601l.5-.022Zm-.314-.37h2.327v-.5h-2.327v.5Zm2.327 0c2.265.003 4.462.775 6.233 2.189l.312-.39a10.507 10.507 0 0 0-6.545-2.298v.5Zm6.233 2.19a13.03 13.03 0 0 0 8.116 2.843v-.5a12.529 12.529 0 0 1-7.804-2.735l-.312.391Zm8.116 2.843h6.581v-.5h-6.58v.5Zm6.581 0a4.807 4.807 0 0 1 4.106 2.328l.428-.258a5.307 5.307 0 0 0-4.533-2.57l-.001.5Zm4.106 2.327.111.186.429-.258-.111-.185-.43.257Zm.111.186a3.045 3.045 0 0 1-.172 3.386l.4.3c.86-1.152.94-2.71.201-3.943l-.429.257Zm.028 3.285h-7.651v.5h7.65v-.5Zm-7.651 0c-2.534-.002-5.011.75-7.118 2.159l.278.415a12.282 12.282 0 0 1 6.84-2.074v-.5Zm-7.117 2.159-.923.615.278.416.922-.615-.277-.416Zm-.923.615a1.508 1.508 0 0 0-.667 1.35l.499-.031c-.024-.36.147-.704.446-.903l-.278-.416Zm-.667 1.35c.034.538.353 1.016.835 1.255l.222-.448a1.007 1.007 0 0 1-.558-.838l-.5.032Zm.835 1.255a1.505 1.505 0 0 0 1.503-.097l-.277-.416c-.3.2-.682.224-1.004.065l-.222.448Zm1.503-.097.922-.615-.277-.416-.922.615.277.416Zm.923-.615a9.775 9.775 0 0 1 5.444-1.65v-.5a10.275 10.275 0 0 0-5.722 1.734l.278.416Zm5.444-1.65h11.185v-.5H35.626v.5Zm11.185 0c.704 0 1.402-.114 2.07-.337l-.16-.474a6.04 6.04 0 0 1-1.91.31v.5Zm2.07-.337 16.053-5.356-.158-.474-16.054 5.356.158.474Zm15.974-5.343a.187.187 0 0 1-.038-.004c-.006-.001-.01-.003-.004 0l.032.008c.017.003.04.007.068.007v-.5c.017 0 .03.002.038.004.006.001.01.003.004 0a.374.374 0 0 0-.1-.015v.5Zm.063.011c.34-.006.667-.129.927-.347l-.322-.383a.982.982 0 0 1-.614.23l.009.5Zm.845-.302 6.41-2.138-.159-.474-6.41 2.138.159.474Zm6.41-2.138a1.936 1.936 0 0 1 2.168.682l.402-.298a2.436 2.436 0 0 0-2.729-.858l.159.474Zm2.17.684c.333.439.461 1 .352 1.54l.49.1a2.42 2.42 0 0 0-.444-1.942l-.398.302Zm.433 1.778.33-.376h-.001l-.33.376Z"/><mask id="d" width="4" height="3" x="36" y="40" maskUnits="userSpaceOnUse" style="mask-type:alpha"><path fill="#000" d="M36.64 42.492c.137.022.28.001.396-.056a.41.41 0 0 0 .226-.248c.077-.275.4-.472.776-.472.172 0 .338.04.475.118.233.13.564.095.739-.079.175-.173.128-.42-.105-.55a2.27 2.27 0 0 0-1.11-.276c-.878.001-1.634.46-1.812 1.101a.313.313 0 0 0 .079.296.56.56 0 0 0 .336.166Z"/></mask><g mask="url(#d)"><mask id="e" width="295" height="9168" x="-107" y="-1831" maskUnits="userSpaceOnUse" style="mask-type:alpha"><path fill="#000" d="M-106.785 7336.29h294.643v-9166.93h-294.643v9166.93Z"/></mask><g mask="url(#e)"><path fill="#000" d="M32.285 37.002h11v9.428h-11v-9.428Z"/></g></g><path fill="#000" stroke="#000" stroke-width=".5" d="M36.64 42.492c.137.022.28.001.396-.056a.41.41 0 0 0 .226-.248c.077-.275.4-.472.776-.472.172 0 .338.04.475.118.233.13.564.095.739-.079.175-.173.128-.42-.105-.55a2.27 2.27 0 0 0-1.11-.276c-.878.001-1.634.46-1.812 1.101a.313.313 0 0 0 .079.296.56.56 0 0 0 .336.166Z"/><mask id="f" width="5" height="3" x="40" y="41" maskUnits="userSpaceOnUse" style="mask-type:alpha"><path fill="#000" d="M41.226 42.588c.172.06.376.051.536-.024.32-.148.74-.117 1.012.073.123.087.204.2.228.322.037.187.264.327.531.326a.815.815 0 0 0 .077-.003.607.607 0 0 0 .355-.148c.086-.081.123-.182.102-.282-.093-.45-.504-.835-1.09-1.021a2.57 2.57 0 0 0-1.805.101c-.161.075-.254.205-.241.34.012.137.127.258.3.317l-.005-.001Z"/></mask><g mask="url(#f)"><mask id="g" width="295" height="9168" x="-107" y="-1831" maskUnits="userSpaceOnUse" style="mask-type:alpha"><path fill="#000" d="M-106.785 7336.29h294.643v-9166.93h-294.643v9166.93Z"/></mask><g mask="url(#g)"><path fill="#000" d="M37 37.786h11v9.429H37v-9.429Z"/></g></g><path fill="#000" stroke="#000" stroke-width=".5" d="M41.226 42.588a.73.73 0 0 0 .536-.024c.32-.148.74-.117 1.012.073.123.087.204.2.228.322.037.187.264.327.531.326a.818.818 0 0 0 .077-.003.607.607 0 0 0 .355-.148c.086-.081.123-.182.102-.282-.093-.45-.504-.835-1.09-1.021a2.57 2.57 0 0 0-1.805.101c-.161.075-.253.205-.241.34.012.137.127.258.3.317l-.005-.001Z"/><defs><clipPath id="a"><path fill="#fff" d="M2 2h76.5v75.5H2z"/></clipPath></defs></svg>
