<svg xmlns="http://www.w3.org/2000/svg" width="80" height="82" transform="scale(.5)" fill="none"><mask id="a" fill="#fff"><path fill-rule="evenodd" d="M43.59 81.548h11.288c2.828-.003 5.12-2.33 5.123-5.201V69.91c0-.283.11-.555.307-.755l9.599-9.747a29.98 29.98 0 0 0 6.405-9.709l1.408-3.438A30.359 30.359 0 0 0 80 34.683V23.55c-.003-2.872-2.295-5.2-5.123-5.202h-1.161c-2.636-.008-4.844 2.022-5.097 4.686l-1.215 12.37a5.07 5.07 0 0 0-6.313.654L43.016 51.903a1.444 1.444 0 0 0-.11.103 17.499 17.499 0 0 0-2.407 2.96 17.607 17.607 0 0 0-2.407-2.96 2.207 2.207 0 0 0-.11-.103L19.907 36.06a5.072 5.072 0 0 0-6.315-.655l-1.212-12.37c-.255-2.663-2.462-4.692-5.098-4.686H6.123c-2.828.004-5.12 2.33-5.123 5.202v11.133a30.346 30.346 0 0 0 2.282 11.579L4.69 49.7a29.97 29.97 0 0 0 6.403 9.71l9.6 9.746c.197.2.308.471.307.754v6.437c.003 2.871 2.295 5.199 5.123 5.201h11.288a5.046 5.046 0 0 1 6.175 0h.004Zm-1.052-19.146a9.698 9.698 0 0 1 3.2-7.42l18.06-15.837c.037-.035.074-.068.11-.104a1.04 1.04 0 0 1 1.487.001 1.08 1.08 0 0 1 0 1.51L53.67 52.457a2.082 2.082 0 0 0-.596 1.46c0 .549.214 1.075.596 1.462l.034.034.043.045c.384.385.903.6 1.443.598a2.02 2.02 0 0 0 1.436-.613l13.061-13.398a5.249 5.249 0 0 0 1.465-3.151l1.515-15.445a1.053 1.053 0 0 1 1.047-.96h1.16c.582 0 1.053.477 1.054 1.067v11.133a26.196 26.196 0 0 1-1.97 9.987l-1.407 3.439a25.884 25.884 0 0 1-5.524 8.374l-9.6 9.747a5.207 5.207 0 0 0-1.5 3.677v6.434c0 .284-.11.556-.308.757-.197.2-.465.313-.744.313H43.588c-.581-.001-1.052-.48-1.052-1.07l.002-13.944Zm-4.071 13.945c0 .59-.472 1.069-1.053 1.069H26.125c-.581-.001-1.052-.48-1.052-1.07V69.91a5.21 5.21 0 0 0-1.501-3.677l-9.598-9.746a25.869 25.869 0 0 1-5.526-8.375l-1.408-3.438a26.191 26.191 0 0 1-1.967-9.988V23.553c0-.59.471-1.067 1.051-1.068h1.16c.54-.001.994.415 1.046.962L9.847 38.89a5.244 5.244 0 0 0 1.46 3.148L24.367 55.44c.791.812 2.08.818 2.88.015l.043-.044.034-.035a2.08 2.08 0 0 0 .597-1.46 2.08 2.08 0 0 0-.597-1.462L15.602 40.551a1.08 1.08 0 0 1 .024-1.487 1.042 1.042 0 0 1 1.465-.024c.034.036.07.07.108.103l18.06 15.837a9.695 9.695 0 0 1 3.2 7.42l.008 13.947Z" clip-rule="evenodd"/></mask><path fill="#000" fill-rule="evenodd" d="M43.59 81.548h11.288c2.828-.003 5.12-2.33 5.123-5.201V69.91c0-.283.11-.555.307-.755l9.599-9.747a29.98 29.98 0 0 0 6.405-9.709l1.408-3.438A30.359 30.359 0 0 0 80 34.683V23.55c-.003-2.872-2.295-5.2-5.123-5.202h-1.161c-2.636-.008-4.844 2.022-5.097 4.686l-1.215 12.37a5.07 5.07 0 0 0-6.313.654L43.016 51.903a1.444 1.444 0 0 0-.11.103 17.499 17.499 0 0 0-2.407 2.96 17.607 17.607 0 0 0-2.407-2.96 2.207 2.207 0 0 0-.11-.103L19.907 36.06a5.072 5.072 0 0 0-6.315-.655l-1.212-12.37c-.255-2.663-2.462-4.692-5.098-4.686H6.123c-2.828.004-5.12 2.33-5.123 5.202v11.133a30.346 30.346 0 0 0 2.282 11.579L4.69 49.7a29.97 29.97 0 0 0 6.403 9.71l9.6 9.746c.197.2.308.471.307.754v6.437c.003 2.871 2.295 5.199 5.123 5.201h11.288a5.046 5.046 0 0 1 6.175 0h.004Zm-1.052-19.146a9.698 9.698 0 0 1 3.2-7.42l18.06-15.837c.037-.035.074-.068.11-.104a1.04 1.04 0 0 1 1.487.001 1.08 1.08 0 0 1 0 1.51L53.67 52.457a2.082 2.082 0 0 0-.596 1.46c0 .549.214 1.075.596 1.462l.034.034.043.045c.384.385.903.6 1.443.598a2.02 2.02 0 0 0 1.436-.613l13.061-13.398a5.249 5.249 0 0 0 1.465-3.151l1.515-15.445a1.053 1.053 0 0 1 1.047-.96h1.16c.582 0 1.053.477 1.054 1.067v11.133a26.196 26.196 0 0 1-1.97 9.987l-1.407 3.439a25.884 25.884 0 0 1-5.524 8.374l-9.6 9.747a5.207 5.207 0 0 0-1.5 3.677v6.434c0 .284-.11.556-.308.757-.197.2-.465.313-.744.313H43.588c-.581-.001-1.052-.48-1.052-1.07l.002-13.944Zm-4.071 13.945c0 .59-.472 1.069-1.053 1.069H26.125c-.581-.001-1.052-.48-1.052-1.07V69.91a5.21 5.21 0 0 0-1.501-3.677l-9.598-9.746a25.869 25.869 0 0 1-5.526-8.375l-1.408-3.438a26.191 26.191 0 0 1-1.967-9.988V23.553c0-.59.471-1.067 1.051-1.068h1.16c.54-.001.994.415 1.046.962L9.847 38.89a5.244 5.244 0 0 0 1.46 3.148L24.367 55.44c.791.812 2.08.818 2.88.015l.043-.044.034-.035a2.08 2.08 0 0 0 .597-1.46 2.08 2.08 0 0 0-.597-1.462L15.602 40.551a1.08 1.08 0 0 1 .024-1.487 1.042 1.042 0 0 1 1.465-.024c.034.036.07.07.108.103l18.06 15.837a9.695 9.695 0 0 1 3.2 7.42l.008 13.947Z" clip-rule="evenodd"/><path fill="#151515" d="M54.878 81.548v.2-.2Zm5.123-5.201h.2-.2Zm0-6.436h.2v-.001h-.2Zm.307-.755-.143-.14.143.14Zm9.599-9.747-.142-.14.142.14Zm6.405-9.709-.185-.076.185.076Zm1.408-3.438-.185-.076.185.076ZM80 34.683h-.2.2Zm0-11.133h.2-.2Zm-5.123-5.202v-.2.2Zm-1.161 0v.2-.2Zm-5.097 4.686.199.02v-.001l-.2-.019Zm-1.215 12.37-.108.168.275.177.032-.326-.199-.02Zm-6.313.654.132.151.008-.008-.14-.142ZM43.016 51.903l.13.153.002-.002-.132-.15Zm-.11.103.141.143.004-.004-.144-.139Zm-2.407 2.96-.168.11.168.259.168-.26-.168-.108Zm-2.407-2.96-.143.14.002.003.14-.143Zm-.11-.103.132-.15-.132.15ZM19.907 36.06l-.14.142.008.008.132-.15Zm-6.315-.655-.199.02.032.325.276-.177-.109-.168Zm-1.212-12.37-.2.02.2-.02Zm-5.098-4.686v.2h.001v-.2Zm-1.159 0v-.2.2ZM1 23.55H.8 1Zm0 11.133h.2H1Zm2.282 11.579.185-.076-.185.076ZM4.69 49.7l.185-.076-.185.076Zm6.403 9.71.142-.141-.142.14Zm9.6 9.746-.143.14.142-.14Zm.307.754h-.2.2Zm0 6.437h-.2.2Zm5.123 5.201v.2-.2Zm11.288 0v.2h.068l.054-.041-.122-.159Zm6.175 0-.122.159.053.041h.069v-.2Zm-1.048-19.146h.2v-.004l-.2.004Zm3.2-7.42-.133-.15-.002.001.134.149Zm18.06-15.837.131.15.005-.004-.136-.146Zm.11-.104-.143-.14.142.14Zm1.487.001-.143.14.143-.14Zm0 1.51-.143-.14.142.14ZM53.67 52.457l.142.14-.142-.14Zm0 2.922.142-.14-.142.14Zm.034.034.142-.14-.142.14Zm.043.045-.142.14.142-.14Zm1.443.598v.2-.2Zm1.436-.613-.144-.14.144.14Zm13.061-13.398-.143-.14.143.14Zm1.465-3.151.198.02v-.001l-.198-.02Zm1.515-15.445.2.02v-.001l-.2-.019Zm1.047-.96-.001.2v-.2Zm2.214 1.067h.2-.2Zm0 11.133h-.2.2Zm-1.97 9.987-.184-.076.185.076Zm-1.407 3.439.185.075-.185-.075Zm-5.524 8.374-.143-.14.143.14Zm-9.6 9.747.142.14-.142-.14Zm-1.5 3.677h.2-.2Zm-.308 7.19-.142-.14.142.14Zm-12.032.314v.2-.2Zm-1.052-1.07h-.2.2Zm-4.07 0h.2-.2Zm-12.34 1.07v.2-.2Zm-1.052-7.505h-.2.2Zm-1.501-3.678-.143.14v.001l.143-.14Zm-9.598-9.746.143-.14-.143.14ZM8.45 48.112l-.185.076.185-.076Zm-1.408-3.438.185-.076-.185.076Zm-1.967-9.988h.2-.2Zm0-11.133h-.2.2Zm1.051-1.068v-.2.2Zm1.16 0v.2-.2Zm1.046.962-.199.019.2-.02ZM9.847 38.89l-.199.02.2-.02Zm1.46 3.148.143-.14-.144.14ZM24.367 55.44l-.143.14.143-.14Zm2.88.015.142.141-.142-.14Zm.043-.044.143.14-.143-.14Zm.034-.035-.142-.14.142.14Zm0-2.922-.142.14.142-.14ZM15.602 40.551l-.147.136.005.005.142-.14Zm1.489-1.511.145-.137-.008-.008-.137.145Zm.108.103-.133.15.133-.15Zm18.06 15.837.134-.148-.002-.002-.132.15Zm3.2 7.42-.2-.004v.005h.2Zm5.131 19.348h11.288v-.4H43.59v.4Zm11.288 0c2.941-.004 5.32-2.422 5.323-5.401h-.4c-.003 2.763-2.208 4.998-4.923 5.001v.4Zm5.323-5.401V69.91h-.4v6.436h.4Zm0-6.437c0-.23.09-.452.25-.614l-.286-.28c-.234.238-.365.56-.364.895l.4-.001Zm.25-.614 9.598-9.747-.285-.28-9.599 9.746.285.281Zm9.598-9.746a30.18 30.18 0 0 0 6.448-9.774l-.37-.152a29.78 29.78 0 0 1-6.362 9.645l.284.28Zm6.448-9.774 1.408-3.438-.37-.152-1.408 3.438.37.152Zm1.408-3.438A30.56 30.56 0 0 0 80.2 34.683h-.4a30.16 30.16 0 0 1-2.265 11.503l.37.152ZM80.2 34.683V23.55h-.4v11.133h.4Zm0-11.133c-.003-2.98-2.382-5.399-5.323-5.402v.4c2.715.003 4.92 2.238 4.923 5.002h.4Zm-5.323-5.402h-1.161v.4h1.16v-.4Zm-1.16 0c-2.742-.008-5.035 2.103-5.297 4.867l.398.038c.243-2.563 2.367-4.513 4.897-4.505l.001-.4Zm-5.297 4.867-1.215 12.369.398.04 1.215-12.37-.398-.04Zm-.907 12.22a5.27 5.27 0 0 0-6.562.68l.28.286a4.87 4.87 0 0 1 6.065-.63l.217-.336Zm-6.554.673L42.885 51.752l.264.3L61.223 36.21l-.264-.3ZM42.888 51.75a1.612 1.612 0 0 0-.125.117l.29.277c.03-.032.06-.061.093-.09l-.258-.304Zm-.12.113a17.701 17.701 0 0 0-2.436 2.994l.336.217a17.3 17.3 0 0 1 2.38-2.926l-.28-.285Zm-2.1 2.994a17.806 17.806 0 0 0-2.435-2.994l-.28.285a17.397 17.397 0 0 1 2.38 2.926l.335-.217Zm-2.433-2.992c-.04-.04-.08-.078-.12-.113l-.264.3c.034.03.068.062.1.094l.284-.281Zm-.12-.113L20.039 35.908l-.264.3L37.85 52.054l.264-.301ZM20.047 35.916a5.272 5.272 0 0 0-6.563-.68l.217.336a4.872 4.872 0 0 1 6.066.63l.28-.286Zm-6.256-.532-1.212-12.37-.398.04 1.212 12.37.398-.04ZM12.58 23.015c-.264-2.763-2.556-4.874-5.297-4.867l.001.4c2.53-.006 4.653 1.942 4.898 4.505l.398-.038Zm-5.297-4.867H6.123v.4h1.16v-.4Zm-1.16 0C3.183 18.152.805 20.571.8 23.55l.4.001c.003-2.764 2.209-4.998 4.923-5.002v-.4ZM.8 23.55v11.133h.4V23.55H.8Zm0 11.133a30.546 30.546 0 0 0 2.297 11.655l.37-.152A30.146 30.146 0 0 1 1.2 34.683H.8Zm2.297 11.655 1.407 3.438.37-.152-1.407-3.438-.37.152Zm1.407 3.438a30.17 30.17 0 0 0 6.447 9.774l.284-.281a29.77 29.77 0 0 1-6.36-9.645l-.37.152Zm6.446 9.773 9.6 9.747.285-.28-9.6-9.747-.285.28Zm9.6 9.747c.16.162.251.383.25.614l.4.001a1.267 1.267 0 0 0-.366-.896l-.284.281Zm.25.614v6.437h.4V69.91h-.4Zm0 6.437c.003 2.979 2.382 5.398 5.323 5.401v-.4c-2.715-.002-4.92-2.237-4.923-5.002h-.4Zm5.323 5.401h11.288v-.4H26.123v.4Zm11.41-.041a4.846 4.846 0 0 1 5.93 0l.245-.317a5.246 5.246 0 0 0-6.419 0l.244.317Zm6.053.041h.004v-.4h-.004v.4Zm-.848-19.35a9.498 9.498 0 0 1 3.133-7.267l-.268-.298a9.899 9.899 0 0 0-3.265 7.573l.4-.008Zm3.131-7.266 18.06-15.837-.263-.3-18.06 15.837.263.3Zm18.065-15.84c.032-.03.076-.07.116-.11l-.285-.28-.103.096.272.293Zm.116-.11a.84.84 0 0 1 1.202 0l.285-.28a1.24 1.24 0 0 0-1.772-.001l.285.28Zm1.202 0a.88.88 0 0 1 0 1.23l.285.281a1.28 1.28 0 0 0 0-1.791l-.285.28Zm0 1.23L53.528 52.315l.285.28 11.724-11.902-.285-.28ZM53.528 52.315a2.282 2.282 0 0 0-.653 1.602h.4c0-.496.194-.971.538-1.321l-.285-.28Zm-.653 1.602c0 .6.234 1.176.653 1.601l.285-.28a1.883 1.883 0 0 1-.538-1.321h-.4Zm.653 1.601.034.035.285-.28-.034-.035-.285.28Zm.034.035.044.044.285-.28-.044-.045-.285.28Zm.044.045c.422.423.992.66 1.585.657l-.002-.4a1.82 1.82 0 0 1-1.299-.54l-.284.283Zm1.585.657a2.22 2.22 0 0 0 1.579-.674l-.287-.279a1.82 1.82 0 0 1-1.293.553l.002.4Zm1.579-.674 13.062-13.397-.287-.28-13.062 13.398.287.28ZM69.83 42.184a5.448 5.448 0 0 0 1.52-3.272l-.398-.04a5.048 5.048 0 0 1-1.408 3.032l.286.28Zm1.52-3.272 1.516-15.444-.398-.04-1.516 15.445.398.039Zm1.516-15.445a.853.853 0 0 1 .847-.78l.002-.4a1.253 1.253 0 0 0-1.247 1.142l.398.038Zm.848-.78h1.16v-.4h-1.16v.4Zm1.16 0c.469 0 .853.386.854.868h.4a1.261 1.261 0 0 0-1.253-1.268v.4Zm.854.868v11.133h.4V23.555h-.4Zm0 11.133a25.994 25.994 0 0 1-1.954 9.911l.37.152a26.396 26.396 0 0 0 1.984-10.063h-.4ZM73.775 44.6l-1.408 3.439.37.151 1.408-3.438-.37-.151Zm-1.408 3.439a25.686 25.686 0 0 1-5.482 8.31l.285.28a26.083 26.083 0 0 0 5.567-8.439l-.37-.151Zm-5.482 8.31-9.6 9.746.286.281 9.6-9.746-.286-.281Zm-9.599 9.746a5.407 5.407 0 0 0-1.558 3.819l.4-.001a5.007 5.007 0 0 1 1.442-3.537l-.284-.28Zm-1.558 3.818v6.434h.4v-6.434h-.4Zm0 6.434c0 .232-.09.453-.25.616l.285.28c.234-.237.366-.56.366-.895h-.4Zm-.25.616a.845.845 0 0 1-.602.254v.4c.333 0 .652-.135.887-.373l-.285-.28Zm-.602.254H43.588v.4h11.288v-.4Zm-11.288 0a.861.861 0 0 1-.852-.87h-.4c0 .698.557 1.269 1.251 1.27l.001-.4Zm-.852-.87.002-13.944h-.4l-.002 13.945h.4Zm-4.47 0c0 .483-.384.87-.852.87v.4c.694 0 1.252-.571 1.252-1.27h-.4Zm-.852.87H26.125v.4h11.287v-.4Zm-11.288 0a.861.861 0 0 1-.852-.87h-.4c0 .698.557 1.269 1.251 1.27l.001-.4Zm-.852-.87V69.91h-.4v6.437h.4Zm0-6.435a5.41 5.41 0 0 0-1.559-3.819l-.284.282a5.01 5.01 0 0 1 1.443 3.536l.4.001Zm-1.559-3.818-9.597-9.747-.285.28 9.597 9.748.285-.281Zm-9.598-9.747a25.67 25.67 0 0 1-5.483-8.31l-.37.152a26.068 26.068 0 0 0 5.569 8.44l.284-.282Zm-5.483-8.31-1.408-3.438-.37.151 1.408 3.439.37-.152Zm-1.408-3.438a25.991 25.991 0 0 1-1.952-9.911h-.4A26.391 26.391 0 0 0 6.856 44.75l.37-.152Zm-1.952-9.912V23.553h-.4v11.133h.4Zm0-11.133c0-.482.384-.867.852-.867l-.001-.4c-.693 0-1.25.57-1.251 1.267h.4Zm.851-.867h1.16v-.4h-1.16v.4Zm1.16 0a.854.854 0 0 1 .847.78l.398-.039a1.254 1.254 0 0 0-1.246-1.142l.001.4Zm.847.78L9.648 38.91l.398-.039L8.53 23.427l-.398.04ZM9.648 38.91a5.444 5.444 0 0 0 1.515 3.269l.287-.28a5.044 5.044 0 0 1-1.404-3.028l-.398.04Zm1.515 3.269L24.225 55.58l.286-.28L11.45 41.9l-.287.279ZM24.225 55.58c.87.891 2.287.899 3.165.016l-.284-.282a1.815 1.815 0 0 1-2.595-.013l-.286.279Zm3.165.016.044-.045-.285-.28-.044.044.285.28Zm.044-.045.034-.034-.285-.28-.034.033.285.281Zm.034-.034a2.28 2.28 0 0 0 .654-1.602h-.4c0 .496-.194.971-.539 1.321l.285.281Zm.654-1.602c0-.6-.235-1.176-.654-1.602l-.285.281c.345.35.54.825.54 1.321h.4Zm-.654-1.601L15.745 40.41l-.285.28 11.723 11.903.285-.28ZM15.749 40.415a.88.88 0 0 1 .02-1.21l-.286-.281a1.281 1.281 0 0 0-.028 1.763l.294-.272Zm.02-1.21a.841.841 0 0 1 1.184-.02l.276-.29a1.242 1.242 0 0 0-1.746.029l.285.28Zm1.176-.028c.04.042.082.081.121.116l.265-.3a1.44 1.44 0 0 1-.095-.09l-.291.274Zm.122.117 18.06 15.837.264-.301-18.06-15.837-.264.3Zm18.059 15.835a9.495 9.495 0 0 1 3.132 7.267l.4.009a9.894 9.894 0 0 0-3.265-7.574l-.267.298Zm3.132 7.272.008 13.946h.4L38.658 62.4h-.4Z" mask="url(#a)"/><mask id="b" fill="#fff"><path fill-rule="evenodd" d="M25.383 33.31a105.925 105.925 0 0 0 8.424 7.765c4.12 3.328 5.805 3.777 6.91 3.777.947 0 3.16 0 11.55-8.149a125.797 125.797 0 0 0 12.048-13.432 30.551 30.551 0 0 0 1.991-2.96c.022-.038.041-.075.06-.113.329-.67.602-1.365.817-2.077 2.06-6.844-1.467-14.1-8.234-16.943C52.182-1.665 44.281.79 40.501 6.91 36.708.77 28.77-1.678 21.993 1.204c-6.777 2.882-10.268 10.19-8.139 17.038.66 3.698 8.241 11.728 11.529 15.068Zm2.519-29.326c5.484.022 10.043 4.087 10.5 9.366.105 1.043 1.012 1.838 2.098 1.838 1.085 0 1.992-.795 2.097-1.838.325-3.869 2.9-7.222 6.639-8.645 3.738-1.423 7.99-.668 10.96 1.946 2.97 2.615 4.142 6.633 3.02 10.36-.147.49-.333.969-.555 1.432a27.528 27.528 0 0 1-1.697 2.502 121.456 121.456 0 0 1-11.25 12.583c-5.383 5.274-8.175 7.064-9.008 7.323-1.318-.365-5.941-3.766-12.533-10.49-6.681-6.814-10.062-11.633-10.242-12.727a1.885 1.885 0 0 0-.086-.423c-1.002-3.091-.42-6.458 1.565-9.07 1.985-2.61 5.138-4.153 8.492-4.155v-.002Z" clip-rule="evenodd"/></mask><path fill="#000" fill-rule="evenodd" d="M25.383 33.31a105.925 105.925 0 0 0 8.424 7.765c4.12 3.328 5.805 3.777 6.91 3.777.947 0 3.16 0 11.55-8.149a125.797 125.797 0 0 0 12.048-13.432 30.551 30.551 0 0 0 1.991-2.96c.022-.038.041-.075.06-.113.329-.67.602-1.365.817-2.077 2.06-6.844-1.467-14.1-8.234-16.943C52.182-1.665 44.281.79 40.501 6.91 36.708.77 28.77-1.678 21.993 1.204c-6.777 2.882-10.268 10.19-8.139 17.038.66 3.698 8.241 11.728 11.529 15.068Zm2.519-29.326c5.484.022 10.043 4.087 10.5 9.366.105 1.043 1.012 1.838 2.098 1.838 1.085 0 1.992-.795 2.097-1.838.325-3.869 2.9-7.222 6.639-8.645 3.738-1.423 7.99-.668 10.96 1.946 2.97 2.615 4.142 6.633 3.02 10.36-.147.49-.333.969-.555 1.432a27.528 27.528 0 0 1-1.697 2.502 121.456 121.456 0 0 1-11.25 12.583c-5.383 5.274-8.175 7.064-9.008 7.323-1.318-.365-5.941-3.766-12.533-10.49-6.681-6.814-10.062-11.633-10.242-12.727a1.885 1.885 0 0 0-.086-.423c-1.002-3.091-.42-6.458 1.565-9.07 1.985-2.61 5.138-4.153 8.492-4.155v-.002Z" clip-rule="evenodd"/><path fill="#151515" d="m25.383 33.31.143-.139-.143.14Zm8.424 7.765-.128.154.002.002.126-.156Zm18.46-4.372-.14-.144.14.144Zm12.048-13.432.158.122.001-.001-.159-.121Zm1.991-2.96.173.101.002-.003-.175-.098Zm.06-.113-.18-.088-.002.003.181.085Zm.817-2.077.191.058-.191-.058ZM40.5 6.91l-.17.105.17.276.17-.276-.17-.105ZM21.993 1.204l.078.184-.078-.184Zm-8.139 17.038.197-.035-.002-.012-.004-.012-.19.06ZM27.902 3.984v-.2h-.2v.2h.2Zm10.5 9.366-.2.017.001.002.2-.02Zm4.195 0 .199.02v-.004l-.199-.016ZM60.196 6.65l-.132.15.132-.15Zm3.02 10.36.192.057-.191-.057Zm-.555 1.432.171.103.005-.008.004-.009-.18-.086Zm-1.697 2.502.158.123.001-.002-.16-.12Zm-11.25 12.583-.14-.143.14.143Zm-9.008 7.323-.054.193.057.015.056-.017-.06-.191ZM28.172 30.36l.143-.14-.143.14ZM17.931 17.634l-.199.018v.007l.002.008.197-.033Zm-.086-.423-.19.062.19-.062Zm1.565-9.07.159.122-.16-.121Zm8.492-4.155v.2h.2v-.2h-.2ZM25.239 33.45a106.16 106.16 0 0 0 8.44 7.78l.255-.31a105.724 105.724 0 0 1-8.408-7.749l-.287.279Zm8.442 7.78c4.125 3.333 5.858 3.822 7.036 3.822v-.4c-1.032 0-2.67-.409-6.785-3.733l-.25.312Zm7.036 3.822c.243 0 .58 0 1.076-.135.494-.133 1.138-.396 2.01-.912 1.74-1.03 4.404-3.08 8.603-7.158l-.279-.287c-4.19 4.07-6.828 6.094-8.528 7.101-.85.503-1.46.749-1.91.87-.446.12-.742.12-.972.12v.4Zm11.689-8.205a125.992 125.992 0 0 0 12.067-13.454l-.316-.245a125.583 125.583 0 0 1-12.03 13.412l.279.287Zm12.068-13.455a30.733 30.733 0 0 0 2.005-2.98l-.345-.203a30.34 30.34 0 0 1-1.978 2.94l.318.243Zm2.007-2.983c.022-.04.044-.08.065-.125l-.362-.171a1.637 1.637 0 0 1-.052.1l.349.195Zm.064-.122c.334-.68.611-1.386.83-2.108l-.384-.116a13.4 13.4 0 0 1-.805 2.047l.359.177Zm.83-2.109c2.09-6.946-1.49-14.304-8.348-17.185l-.155.37c6.677 2.804 10.148 9.958 8.12 16.7l.382.115ZM59.026.993C52.172-1.887 44.164.6 40.33 6.806l.34.21c3.727-6.034 11.522-8.46 18.2-5.654l.156-.369ZM40.67 6.806C36.824.578 28.78-1.899 21.914 1.02l.157.368c6.688-2.844 14.52-.426 18.26 5.628l.34-.21ZM21.914 1.02c-6.867 2.92-10.411 10.33-8.25 17.282l.381-.119c-2.097-6.747 1.34-13.952 8.026-16.795l-.157-.368Zm-8.257 17.258c.173.966.79 2.189 1.647 3.517.86 1.334 1.978 2.796 3.175 4.243 2.394 2.893 5.116 5.74 6.761 7.413l.285-.28c-1.642-1.67-4.354-4.508-6.738-7.388-1.191-1.44-2.298-2.889-3.147-4.205-.853-1.321-1.431-2.488-1.589-3.37l-.394.07ZM27.901 4.184c5.387.021 9.854 4.013 10.302 9.183l.398-.035c-.467-5.387-5.116-9.526-10.698-9.548l-.002.4Zm10.302 9.186c.115 1.15 1.114 2.019 2.297 2.019v-.4c-.989 0-1.805-.724-1.899-1.66l-.398.04Zm2.297 2.019c1.182 0 2.18-.869 2.296-2.02l-.398-.04c-.094.936-.91 1.66-1.898 1.66v.4Zm2.296-2.023c.318-3.788 2.841-7.077 6.51-8.474l-.142-.374c-3.807 1.45-6.435 4.867-6.766 8.815l.398.033Zm6.51-8.474c3.671-1.397 7.844-.655 10.758 1.91l.264-.3c-3.027-2.665-7.356-3.433-11.164-1.984l.143.374Zm10.758 1.91c2.913 2.563 4.06 6.5 2.961 10.151l.383.115c1.144-3.803-.052-7.902-3.08-10.567l-.264.3Zm2.961 10.151c-.145.48-.326.95-.544 1.403l.36.173c.227-.472.416-.96.567-1.46l-.383-.116Zm-.536 1.387a27.343 27.343 0 0 1-1.684 2.484l.318.242a27.77 27.77 0 0 0 1.71-2.52l-.344-.206Zm-1.683 2.483a121.264 121.264 0 0 1-11.232 12.562l.279.287a121.67 121.67 0 0 0 11.269-12.604l-.316-.245ZM49.573 33.386c-2.687 2.632-4.724 4.393-6.191 5.526-.734.566-1.324.975-1.78 1.257-.458.284-.772.434-.956.49l.119.383c.233-.073.581-.244 1.048-.533.47-.291 1.072-.708 1.813-1.28 1.483-1.146 3.532-2.917 6.227-5.558l-.28-.285Zm-8.814 7.272c-.296-.082-.81-.347-1.53-.822-.715-.47-1.617-1.135-2.686-2-2.137-1.731-4.935-4.257-8.227-7.615l-.286.28c3.3 3.367 6.11 5.903 8.261 7.645 1.076.871 1.989 1.545 2.717 2.025.723.475 1.282.772 1.644.873l.107-.386ZM28.316 30.221c-3.336-3.402-5.846-6.305-7.544-8.49-.849-1.094-1.493-2.006-1.935-2.71-.22-.353-.39-.652-.509-.893-.12-.246-.182-.42-.2-.526l-.394.065c.027.167.11.383.235.637.127.258.304.569.53.929.45.72 1.103 1.643 1.957 2.742 1.709 2.2 4.23 5.115 7.575 8.526l.285-.28ZM18.131 17.617a2.086 2.086 0 0 0-.096-.468l-.38.125c.04.123.066.25.077.378l.399-.035Zm-.096-.467c-.981-3.029-.412-6.328 1.534-8.887l-.319-.242c-2.024 2.662-2.617 6.097-1.596 9.252l.38-.123Zm1.534-8.887c1.946-2.56 5.04-4.075 8.333-4.077v-.4c-3.415.002-6.628 1.573-8.652 4.235l.319.242Zm8.533-4.277v-.002h-.4v.002h.4Z" mask="url(#b)"/><path fill="#000" stroke="#151515" stroke-width=".2" d="M53.731 11.363a1.632 1.632 0 0 1 0-3.263 6.176 6.176 0 0 1 6.169 6.168 1.631 1.631 0 1 1-3.263 0 2.909 2.909 0 0 0-2.906-2.905Z"/></svg>
