<?xml version="1.0" standalone="no"?>
<!DOCTYPE svg PUBLIC "-//W3C//DTD SVG 20010904//EN"
 "http://www.w3.org/TR/2001/REC-SVG-20010904/DTD/svg10.dtd">
<svg version="1.0" xmlns="http://www.w3.org/2000/svg"
 width="42" height="42" viewBox="0 0 168.000000 168.000000"
 preserveAspectRatio="xMidYMid meet">

<g transform="translate(0.000000,168.000000) scale(0.100000,-0.100000)"
fill="#000000" stroke="none">
<path d="M816 1665 c-183 -47 -344 -208 -385 -385 -6 -25 -11 -123 -11 -217 0
-95 -4 -173 -8 -173 -5 0 -17 10 -28 21 -63 71 -205 76 -277 11 -57 -51 -77
-164 -42 -232 10 -19 64 -82 120 -140 147 -153 201 -260 228 -455 l12 -90 515
0 515 0 10 33 c9 30 12 32 58 32 26 0 57 5 69 11 24 13 50 71 42 96 -21 64
-47 83 -119 83 l-45 0 0 89 c0 100 -14 130 -51 111 -16 -9 -19 -22 -19 -85 l0
-75 -484 0 -484 0 -16 42 c-31 75 -102 173 -202 278 l-99 103 0 53 c0 60 25
96 83 121 56 23 96 8 173 -64 105 -100 103 -104 109 182 7 275 14 307 98 418
90 117 214 177 366 177 212 0 387 -136 442 -343 10 -38 14 -122 14 -304 0
-239 1 -253 19 -263 15 -8 24 -6 36 7 15 15 16 44 13 277 -4 232 -7 268 -26
326 -70 215 -255 356 -476 366 -60 2 -111 -1 -150 -11z m584 -1515 l0 -80
-459 0 -458 0 -6 48 c-3 26 -9 62 -13 80 l-6 32 471 0 471 0 0 -80z m161 34
c21 -25 -1 -49 -50 -52 -41 -3 -41 -3 -41 32 0 35 1 36 39 36 23 0 44 -6 52
-16z"/>
<path d="M1404 595 c-9 -23 3 -45 24 -45 29 0 48 26 32 45 -7 8 -21 15 -32 15
-10 0 -21 -7 -24 -15z"/>
</g>
</svg>
